<svg width="24" height="24" viewBox="0 0 24 24" fill="none" xmlns="http://www.w3.org/2000/svg">
<path opacity="0.4" d="M22 12C22 17.5228 17.5228 22 12 22C6.47715 22 2 17.5228 2 12C2 6.47715 6.47715 2 12 2C17.5228 2 22 6.47715 22 12Z" fill="#28303F"/>
<path fill-rule="evenodd" clip-rule="evenodd" d="M8.55004 16.5999C8.21867 16.3514 8.15152 15.8813 8.40004 15.5499L10.5 12.7499C10.8334 12.3055 10.8334 11.6944 10.5 11.2499L8.40004 8.44992C8.15152 8.11855 8.21867 7.64845 8.55004 7.39992C8.88142 7.15139 9.35152 7.21855 9.60004 7.54992L11.7 10.3499C12.4334 11.3277 12.4334 12.6721 11.7 13.6499L9.60004 16.4499C9.35152 16.7813 8.88142 16.8485 8.55004 16.5999Z" fill="#28303F"/>
<path fill-rule="evenodd" clip-rule="evenodd" d="M13.55 16.5999C13.2187 16.3514 13.1515 15.8813 13.4 15.5499L15.5 12.7499C15.8334 12.3055 15.8334 11.6944 15.5 11.2499L13.4 8.44992C13.1515 8.11855 13.2187 7.64845 13.55 7.39992C13.8814 7.15139 14.3515 7.21855 14.6 7.54992L16.7 10.3499C17.4334 11.3277 17.4334 12.6721 16.7 13.6499L14.6 16.4499C14.3515 16.7813 13.8814 16.8485 13.55 16.5999Z" fill="#28303F"/>
</svg>
