<svg width="24" height="24" viewBox="0 0 24 24" fill="none" xmlns="http://www.w3.org/2000/svg">
<path fill-rule="evenodd" clip-rule="evenodd" d="M17.5303 3.46967C17.2374 3.17678 16.7626 3.17678 16.4697 3.46967C16.1768 3.76256 16.1768 4.23744 16.4697 4.53033L18.1893 6.25H8.99999C5.82435 6.25 3.24999 8.82436 3.24999 12V13C3.24999 13.4142 3.58578 13.75 3.99999 13.75C4.4142 13.75 4.74999 13.4142 4.74999 13V12C4.74999 9.65279 6.65278 7.75 8.99999 7.75H20C20.3033 7.75 20.5768 7.56727 20.6929 7.28701C20.809 7.00676 20.7448 6.68417 20.5303 6.46967L17.5303 3.46967ZM6.46966 20.5303C6.76255 20.8232 7.23743 20.8232 7.53032 20.5303C7.82322 20.2374 7.82322 19.7626 7.53032 19.4697L5.81065 17.75H15C18.1756 17.75 20.75 15.1756 20.75 12V11C20.75 10.5858 20.4142 10.25 20 10.25C19.5858 10.25 19.25 10.5858 19.25 11V12C19.25 14.3472 17.3472 16.25 15 16.25H3.99999C3.69665 16.25 3.42317 16.4327 3.30708 16.713C3.191 16.9932 3.25516 17.3158 3.46966 17.5303L6.46966 20.5303Z" fill="#28303F"/>
</svg>
