<svg width="24" height="24" viewBox="0 0 24 24" fill="none" xmlns="http://www.w3.org/2000/svg">
<path fill-rule="evenodd" clip-rule="evenodd" d="M13.1005 5.24252C12.3195 6.02357 12.3195 7.2899 13.1005 8.07095L15.9289 10.8994C16.71 11.6804 17.9763 11.6804 18.7574 10.8994L21.5858 8.07095C22.3668 7.2899 22.3668 6.02357 21.5858 5.24252L18.7574 2.41409C17.9763 1.63305 16.71 1.63305 15.9289 2.41409L13.1005 5.24252ZM4 1.99999C2.89543 1.99999 2 2.89542 2 3.99999V7.99999C2 9.10456 2.89543 9.99999 4 9.99999H8C9.10457 9.99999 10 9.10456 10 7.99999V3.99999C10 2.89542 9.10457 1.99999 8 1.99999H4ZM4 14C2.89543 14 2 14.8954 2 16V20C2 21.1046 2.89543 22 4 22H8C9.10457 22 10 21.1046 10 20V16C10 14.8954 9.10457 14 8 14H4ZM14 16C14 14.8954 14.8954 14 16 14H20C21.1046 14 22 14.8954 22 16V20C22 21.1046 21.1046 22 20 22H16C14.8954 22 14 21.1046 14 20V16Z" fill="#28303F"/>
</svg>
