<svg width="24" height="24" viewBox="0 0 24 24" fill="none" xmlns="http://www.w3.org/2000/svg">
<path opacity="0.4" d="M19 16V9H5V16C5 17.1046 5.89543 18 7 18H7.5H17C18.1046 18 19 17.1046 19 16Z" fill="#28303F"/>
<path fill-rule="evenodd" clip-rule="evenodd" d="M7.23604 2C6.4785 2 5.78597 2.428 5.44719 3.10557L3.44719 7.10557C2.78228 8.43538 3.74928 10 5.23604 10H7.45387L8.16884 6.7501H3.62497L4.37497 5.2501H8.49884L9.21387 2H7.23604ZM10.7462 2L10.0312 5.2501H13.9688L13.2538 2H10.7462ZM14.7862 2L15.5012 5.2501H19.625L18.5528 3.10557C18.214 2.428 17.5214 2 16.7639 2H14.7862ZM20.375 6.7501H15.8312L16.5462 10H18.7639C20.2507 10 21.2177 8.43538 20.5528 7.10557L20.375 6.7501ZM15 10L14.2988 6.7501H9.7012L8.98622 10H15Z" fill="#28303F"/>
<path fill-rule="evenodd" clip-rule="evenodd" d="M13.45 13.4C13.7814 13.6486 13.8485 14.1187 13.6 14.45L11.5 17.25H14C14.2841 17.25 14.5438 17.4105 14.6708 17.6646C14.7979 17.9187 14.7705 18.2228 14.6 18.45L11.6 22.45C11.3515 22.7814 10.8814 22.8486 10.55 22.6C10.2186 22.3515 10.1515 21.8814 10.4 21.55L12.5 18.75H10C9.71593 18.75 9.45623 18.5895 9.32918 18.3355C9.20214 18.0814 9.22956 17.7773 9.4 17.55L12.4 13.55C12.6485 13.2187 13.1186 13.1515 13.45 13.4Z" fill="#28303F"/>
</svg>
