<svg width="24" height="24" viewBox="0 0 24 24" fill="none" xmlns="http://www.w3.org/2000/svg">
<path d="M16 6C16 3.79086 14.2091 2 12 2C9.79086 2 8 3.79086 8 6" stroke="#28303F" stroke-width="1.5" stroke-linecap="round" stroke-linejoin="round"/>
<path d="M4.562 9.50386C4.81221 7.50215 6.51381 6 8.53111 6H15.4688C17.4861 6 19.1877 7.50215 19.438 9.50386L20.438 17.5039C20.7364 19.8913 18.8748 22 16.4688 22H7.53111C5.12511 22 3.26357 19.8913 3.562 17.5039L4.562 9.50386Z" stroke="#28303F" stroke-width="1.5" stroke-linejoin="round"/>
<path d="M12.2651 11.735L11.9999 12.0001L11.7348 11.735C11.0025 11.0027 9.81534 11.0027 9.08311 11.735C8.35088 12.4672 8.35088 13.6544 9.08311 14.3866L10.9393 16.2428C11.5251 16.8286 12.4748 16.8286 13.0606 16.2428L14.9167 14.3866C15.649 13.6544 15.649 12.4672 14.9167 11.735C14.1845 11.0027 12.9973 11.0027 12.2651 11.735Z" stroke="#28303F" stroke-width="1.5" stroke-linejoin="round"/>
</svg>
