<svg width="24" height="24" viewBox="0 0 24 24" fill="none" xmlns="http://www.w3.org/2000/svg">
<path d="M9 6L9 7C9 8.65685 10.3431 10 12 10C13.6569 10 15 8.65685 15 7V6" stroke="#28303F" stroke-width="1.5" stroke-linecap="round" stroke-linejoin="round"/>
<path d="M20.6666 13L19.557 6.3424C19.2356 4.41365 17.5668 3 15.6115 3H8.38848C6.43313 3 4.76436 4.41365 4.44291 6.3424L2.77624 16.3424C2.36988 18.7805 4.25006 21 6.72182 21H13" stroke="#28303F" stroke-width="1.5" stroke-linecap="round" stroke-linejoin="round"/>
<path d="M18.5225 15.9169L18.2574 16.182L17.9922 15.9169C17.26 15.1846 16.0728 15.1846 15.3406 15.9169C14.6083 16.6491 14.6083 17.8363 15.3406 18.5685L17.1967 20.4247C17.7825 21.0104 18.7322 21.0104 19.318 20.4247L21.1742 18.5685C21.9064 17.8363 21.9064 16.6491 21.1742 15.9169C20.442 15.1846 19.2548 15.1846 18.5225 15.9169Z" stroke="#28303F" stroke-width="1.5" stroke-linejoin="round"/>
</svg>
