<svg width="24" height="24" viewBox="0 0 24 24" fill="none" xmlns="http://www.w3.org/2000/svg">
<path d="M9 2L6 6" stroke="#28303F" stroke-width="1.5" stroke-linecap="round" stroke-linejoin="round"/>
<path d="M15 2L18 6" stroke="#28303F" stroke-width="1.5" stroke-linecap="round" stroke-linejoin="round"/>
<path d="M2.58683 10H21.4132M18.0351 6L5.96486 6C3.45403 6 1.57594 8.32624 2.08312 10.808L3.71804 18.808C4.09787 20.6666 5.71942 22 7.59978 22H16.4002C18.2806 22 19.9021 20.6666 20.282 18.808L21.9169 10.808C22.4241 8.32624 20.546 6 18.0351 6Z" stroke="#28303F" stroke-width="1.5" stroke-linecap="round" stroke-linejoin="round"/>
<path d="M12.2652 13.7347L12 13.9999L11.7349 13.7347C11.0027 13.0025 9.81547 13.0025 9.08323 13.7347C8.351 14.467 8.351 15.6541 9.08323 16.3864L10.9394 18.2425C11.5252 18.8283 12.4749 18.8283 13.0607 18.2425L14.9169 16.3864C15.6491 15.6541 15.6491 14.467 14.9169 13.7347C14.1846 13.0025 12.9974 13.0025 12.2652 13.7347Z" stroke="#28303F" stroke-width="1.5" stroke-linejoin="round"/>
</svg>
