<svg width="24" height="24" viewBox="0 0 24 24" fill="none" xmlns="http://www.w3.org/2000/svg">
<path fill-rule="evenodd" clip-rule="evenodd" d="M21.021 9.89248C20.9588 9.84346 20.8957 9.79555 20.8317 9.7488C19.7571 8.96364 18.4305 8.49975 17 8.49975C16.7431 8.49975 16.4894 8.51473 16.2396 8.5439C15.382 7.15299 14.1354 6.02888 12.6507 5.32187C12.54 5.26913 12.4279 5.21872 12.3146 5.17069C12.8351 3.77721 13.9595 2.67822 15.3693 2.19207C15.7097 2.07471 16.0181 2.39419 16.0034 2.7539C16.0011 2.80903 16 2.86445 16 2.92013C16 5.12927 17.7908 6.92013 20 6.92013C20.5324 6.92013 21.0405 6.81612 21.5051 6.62732C21.7324 6.53491 22 6.6747 22 6.92013C22 8.03335 21.6362 9.06161 21.021 9.89248ZM8.68341 18.1797L12.1159 14.0607C12.4153 13.7014 13 13.9131 13 14.3808V16.4998C13 16.7759 13.2239 16.9998 13.5 16.9998H14.9325C15.3564 16.9998 15.588 17.4942 15.3166 17.8198L11.8841 21.9388C11.5847 22.2981 11 22.0864 11 21.6187V19.4998C11 19.2236 10.7761 18.9998 10.5 18.9998H9.06752C8.6436 18.9998 8.41202 18.5053 8.68341 18.1797ZM2 12.9998C2 16.3854 4.40366 19.2097 7.5976 19.8592C6.96623 19.1683 6.83473 18.0549 7.53107 17.2193L10.9636 13.1003C12.1611 11.6633 14.5 12.5101 14.5 14.3807V15.4997H14.9325C16.6281 15.4997 17.5545 17.4774 16.4689 18.78L15.4525 19.9998H17C19.7614 19.9998 22 17.7612 22 14.9998C22 13.3402 21.1914 11.8694 19.9468 10.9599C19.1204 10.3561 18.1018 9.99976 17 9.99976C16.4547 9.99976 15.9299 10.087 15.4386 10.2484C14.7677 8.68047 13.5408 7.4071 12.0058 6.67617C11.0951 6.24248 10.0759 5.99976 9 5.99976C5.13401 5.99976 2 9.13376 2 12.9998Z" fill="#28303F"/>
</svg>
