<svg width="24" height="24" viewBox="0 0 24 24" fill="none" xmlns="http://www.w3.org/2000/svg">
<path fill-rule="evenodd" clip-rule="evenodd" d="M21.0211 9.89248C20.9589 9.84346 20.8958 9.79555 20.8318 9.7488C19.7572 8.96364 18.4306 8.49975 17.0001 8.49975C16.7432 8.49975 16.4895 8.51473 16.2397 8.5439C15.3822 7.15299 14.1356 6.02888 12.6509 5.32187C12.5401 5.26913 12.428 5.21872 12.3147 5.17069C12.8352 3.77721 13.9596 2.67822 15.3694 2.19207C15.7098 2.07471 16.0182 2.39419 16.0035 2.7539C16.0012 2.80903 16.0001 2.86445 16.0001 2.92013C16.0001 5.12927 17.791 6.92013 20.0001 6.92013C20.5325 6.92013 21.0406 6.81612 21.5052 6.62732C21.7325 6.53491 22.0001 6.6747 22.0001 6.92013C22.0001 8.03335 21.6363 9.06161 21.0211 9.89248ZM3.66314 17.5297C2.62583 16.3088 2 14.7273 2 12.9998C2 9.13376 5.13401 5.99976 9 5.99976C10.0759 5.99976 11.0951 6.24248 12.0058 6.67617C13.5408 7.4071 14.7677 8.68047 15.4386 10.2484C15.9299 10.087 16.4547 9.99976 17 9.99976C18.1018 9.99976 19.1204 10.3561 19.9468 10.9599C21.1914 11.8694 22 13.3402 22 14.9998C22 16.3988 21.4254 17.6636 20.4994 18.5711L20.4995 18.5605L20.4999 18.532L20.5 18.5C20.5 17.904 20.3042 17.3733 20.1118 16.9818C19.9125 16.5762 19.6624 16.2114 19.4384 15.9205C19.2111 15.6254 18.9875 15.3766 18.8221 15.2024C18.7385 15.1144 18.6677 15.0433 18.6159 14.9923L18.5217 14.9017C17.9459 14.3661 17.0541 14.3661 16.4783 14.9017L16.3841 14.9923C16.3323 15.0433 16.2615 15.1144 16.1779 15.2024C16.0125 15.3766 15.7889 15.6254 15.5616 15.9205C15.3376 16.2114 15.0875 16.5762 14.8882 16.9818C14.6958 17.3733 14.5 17.904 14.5 18.5C14.5 18.5959 14.5034 18.6914 14.5103 18.7862C14.3314 18.4588 14.1258 18.1638 13.9384 17.9205C13.7111 17.6254 13.4875 17.3766 13.3221 17.2024C13.2385 17.1144 13.1677 17.0433 13.1159 16.9923L13.0217 16.9017C12.4459 16.3661 11.5541 16.3661 10.9783 16.9017L10.8841 16.9923C10.8323 17.0433 10.7615 17.1144 10.6779 17.2024C10.5125 17.3766 10.2889 17.6254 10.0616 17.9205C9.87422 18.1638 9.66862 18.4588 9.48973 18.7862C9.49663 18.6914 9.5 18.5959 9.5 18.5C9.5 17.904 9.30423 17.3733 9.11185 16.9818C8.9125 16.5762 8.66243 16.2114 8.43842 15.9205C8.21109 15.6254 7.98748 15.3766 7.82206 15.2024C7.73852 15.1144 7.66771 15.0433 7.61592 14.9923L7.52169 14.9017C6.94588 14.3661 6.05412 14.3661 5.47831 14.9017L5.38408 14.9923C5.33229 15.0433 5.26148 15.1144 5.17794 15.2024C5.01252 15.3766 4.78891 15.6254 4.56158 15.9205C4.33757 16.2114 4.0875 16.5762 3.88815 16.9818C3.80912 17.1426 3.72951 17.327 3.66314 17.5297ZM12 21.9998C12.8284 21.9998 13.5 21.6043 13.5 20.4998C13.5 19.3952 12 17.9998 12 17.9998C12 17.9998 10.5 19.3952 10.5 20.4998C10.5 21.6043 11.1716 21.9998 12 21.9998ZM19 18.4998C19 19.6043 18.3284 19.9998 17.5 19.9998C16.6716 19.9998 16 19.6043 16 18.4998C16 17.3952 17.5 15.9998 17.5 15.9998C17.5 15.9998 19 17.3952 19 18.4998ZM6.5 19.9998C7.32843 19.9998 8 19.6043 8 18.4998C8 17.3952 6.5 15.9998 6.5 15.9998C6.5 15.9998 5 17.3952 5 18.4998C5 19.6043 5.67157 19.9998 6.5 19.9998Z" fill="#28303F"/>
</svg>
