<svg width="24" height="24" viewBox="0 0 24 24" fill="none" xmlns="http://www.w3.org/2000/svg">
<path fill-rule="evenodd" clip-rule="evenodd" d="M21.021 9.89248C20.9588 9.84346 20.8957 9.79555 20.8317 9.7488C19.7571 8.96364 18.4305 8.49975 17 8.49975C16.7431 8.49975 16.4894 8.51473 16.2396 8.5439C15.382 7.15299 14.1354 6.02888 12.6507 5.32187C12.54 5.26913 12.4279 5.21872 12.3146 5.17069C12.8351 3.77721 13.9595 2.67822 15.3693 2.19207C15.7097 2.07471 16.0181 2.39419 16.0034 2.7539C16.0011 2.80903 16 2.86445 16 2.92013C16 5.12927 17.7908 6.92013 20 6.92013C20.5324 6.92013 21.0405 6.81612 21.5051 6.62732C21.7324 6.53491 22 6.6747 22 6.92013C22 8.03335 21.6362 9.06161 21.021 9.89248ZM12.2786 16.3036C12.6632 16.4574 12.8502 16.8939 12.6964 17.2785L10.6964 22.2785C10.5426 22.6631 10.1061 22.8501 9.7215 22.6963C9.33691 22.5425 9.14985 22.106 9.30368 21.7214L11.3037 16.7214C11.4575 16.3368 11.894 16.1498 12.2786 16.3036ZM8.33545 16.3291C8.70594 16.5144 8.8561 16.9649 8.67086 17.3354L7.67086 19.3354C7.48562 19.7058 7.03512 19.856 6.66463 19.6708C6.29415 19.4855 6.14398 19.035 6.32922 18.6645L7.32922 16.6645C7.51446 16.2941 7.96497 16.1439 8.33545 16.3291ZM16.3355 16.3291C16.7059 16.5144 16.8561 16.9649 16.6709 17.3354L15.6709 19.3354C15.4856 19.7058 15.0351 19.856 14.6646 19.6708C14.2941 19.4855 14.144 19.035 14.3292 18.6645L15.3292 16.6645C15.5145 16.2941 15.965 16.1439 16.3355 16.3291ZM2 12.9998C2 15.284 3.09414 17.3127 4.78692 18.5904C4.82449 18.3878 4.89075 18.1869 4.98753 17.9934L5.98753 15.9934C6.54325 14.8819 7.89477 14.4314 9.00622 14.9872C9.45036 15.2092 9.78897 15.5584 9.99999 15.9685C10.5244 14.9483 11.7491 14.4759 12.8356 14.9105C13.3592 15.12 13.7607 15.504 14 15.9688C14.5633 14.8753 15.903 14.4356 17.0062 14.9872C18.1177 15.5429 18.5682 16.8944 18.0125 18.0059L17.0155 19.9997C19.7698 19.9914 22 17.756 22 14.9998C22 13.3402 21.1914 11.8694 19.9468 10.9599C19.1204 10.3561 18.1018 9.99976 17 9.99976C16.4547 9.99976 15.9299 10.087 15.4386 10.2484C14.7677 8.68047 13.5408 7.4071 12.0058 6.67617C11.0951 6.24248 10.0759 5.99976 9 5.99976C5.13401 5.99976 2 9.13376 2 12.9998Z" fill="#28303F"/>
</svg>
