<svg width="24" height="24" viewBox="0 0 24 24" fill="none" xmlns="http://www.w3.org/2000/svg">
<path fill-rule="evenodd" clip-rule="evenodd" d="M20.8318 9.7488C20.8958 9.79555 20.9589 9.84346 21.0211 9.89248C21.6363 9.06161 22.0001 8.03335 22.0001 6.92013C22.0001 6.6747 21.7325 6.53491 21.5052 6.62732C21.0406 6.81612 20.5325 6.92013 20.0001 6.92013C17.791 6.92013 16.0001 5.12927 16.0001 2.92013C16.0001 2.86445 16.0012 2.80903 16.0035 2.7539C16.0182 2.39419 15.7098 2.07471 15.3694 2.19207C13.9596 2.67822 12.8352 3.77721 12.3147 5.17069C12.428 5.21872 12.5401 5.26913 12.6509 5.32187C14.1356 6.02888 15.3822 7.15299 16.2397 8.5439C16.4895 8.51473 16.7432 8.49975 17.0001 8.49975C18.4306 8.49975 19.7572 8.96364 20.8318 9.7488ZM16 21.9998C16.8284 21.9998 17.5 21.6043 17.5 20.4998C17.5 19.3952 16 17.9998 16 17.9998C16 17.9998 14.5 19.3952 14.5 20.4998C14.5 21.6043 15.1716 21.9998 16 21.9998ZM4.68341 17.1797L8.11589 13.0607C8.41527 12.7014 9 12.9131 9 13.3808V15.4998C9 15.7759 9.22386 15.9998 9.5 15.9998H10.9325C11.3564 15.9998 11.588 16.4942 11.3166 16.8198L7.88411 20.9388C7.58473 21.2981 7 21.0864 7 20.6187V18.4998C7 18.2236 6.77614 17.9998 6.5 17.9998H5.06752C4.6436 17.9998 4.41202 17.5053 4.68341 17.1797ZM3.16517 16.8683C2.42893 15.76 2 14.43 2 12.9998C2 9.13376 5.13401 5.99976 9 5.99976C10.0759 5.99976 11.0951 6.24248 12.0058 6.67617C13.5408 7.4071 14.7677 8.68047 15.4386 10.2484C15.9299 10.087 16.4547 9.99976 17 9.99976C18.1018 9.99976 19.1204 10.3561 19.9468 10.9599C21.1914 11.8694 22 13.3402 22 14.9998C22 17.0998 20.7053 18.8975 18.8706 19.6381C18.7985 19.3923 18.7048 19.1707 18.6118 18.9816C18.4125 18.5759 18.1624 18.2112 17.9384 17.9203C17.7111 17.6251 17.4875 17.3763 17.3221 17.2021C17.2385 17.1142 17.1677 17.043 17.1159 16.9921L17.0217 16.9015C16.4459 16.3658 15.5541 16.3658 14.9783 16.9015L14.8841 16.9921C14.8323 17.043 14.7615 17.1142 14.6779 17.2021C14.5125 17.3763 14.2889 17.6251 14.0616 17.9203C13.8376 18.2112 13.5875 18.5759 13.3882 18.9816C13.2515 19.2596 13.1132 19.6078 13.0445 19.9998H10.6192L12.4689 17.78C13.5545 16.4774 12.6281 14.4997 10.9325 14.4997H10.5V13.3807C10.5 11.5101 8.16107 10.6633 6.96355 12.1003L3.53107 16.2193C3.3617 16.4225 3.24131 16.6422 3.16517 16.8683Z" fill="#28303F"/>
</svg>
