<svg width="24" height="24" viewBox="0 0 24 24" fill="none" xmlns="http://www.w3.org/2000/svg">
<path fill-rule="evenodd" clip-rule="evenodd" d="M20.8318 9.7488C20.8958 9.79555 20.9589 9.84346 21.0211 9.89248C21.6363 9.06161 22.0001 8.03335 22.0001 6.92013C22.0001 6.6747 21.7325 6.53491 21.5052 6.62732C21.0406 6.81612 20.5325 6.92013 20.0001 6.92013C17.791 6.92013 16.0001 5.12927 16.0001 2.92013C16.0001 2.86445 16.0012 2.80903 16.0035 2.7539C16.0182 2.39419 15.7098 2.07471 15.3694 2.19207C13.9596 2.67822 12.8352 3.77721 12.3147 5.17069C12.428 5.21872 12.5401 5.26913 12.6509 5.32187C14.1356 6.02888 15.3822 7.15299 16.2397 8.5439C16.4895 8.51473 16.7432 8.49975 17.0001 8.49975C18.4306 8.49975 19.7572 8.96364 20.8318 9.7488ZM12 22.7498C12.4142 22.7498 12.75 22.414 12.75 21.9998C12.75 21.5855 12.4142 21.2498 12 21.2498C11.5858 21.2498 11.25 21.5855 11.25 21.9998C11.25 22.414 11.5858 22.7498 12 22.7498ZM12.75 18.9998C12.75 19.414 12.4142 19.7498 12 19.7498C11.5858 19.7498 11.25 19.414 11.25 18.9998C11.25 18.5855 11.5858 18.2498 12 18.2498C12.4142 18.2498 12.75 18.5855 12.75 18.9998ZM8.75 20.7498C9.16421 20.7498 9.5 20.414 9.5 19.9998C9.5 19.5855 9.16421 19.2498 8.75 19.2498C8.33579 19.2498 8 19.5855 8 19.9998C8 20.414 8.33579 20.7498 8.75 20.7498ZM16 19.9998C16 20.414 15.6642 20.7498 15.25 20.7498C14.8358 20.7498 14.5 20.414 14.5 19.9998C14.5 19.5855 14.8358 19.2498 15.25 19.2498C15.6642 19.2498 16 19.5855 16 19.9998ZM8.75 17.7498C9.16421 17.7498 9.5 17.414 9.5 16.9998C9.5 16.5855 9.16421 16.2498 8.75 16.2498C8.33579 16.2498 8 16.5855 8 16.9998C8 17.414 8.33579 17.7498 8.75 17.7498ZM16 16.9998C16 17.414 15.6642 17.7498 15.25 17.7498C14.8358 17.7498 14.5 17.414 14.5 16.9998C14.5 16.5855 14.8358 16.2498 15.25 16.2498C15.6642 16.2498 16 16.5855 16 16.9998ZM2 12.9998C2 16.0014 3.88933 18.5618 6.54367 19.5567C6.62379 19.1557 6.81047 18.7932 7.07292 18.5C6.71664 18.1019 6.5 17.5763 6.5 17C6.5 15.7574 7.50736 14.75 8.75 14.75C9.98727 14.75 10.9913 15.7487 10.9999 16.9839C11.3012 16.8342 11.6408 16.75 12 16.75C12.3592 16.75 12.6988 16.8342 13.0001 16.9839C13.0087 15.7487 14.0127 14.75 15.25 14.75C16.4926 14.75 17.5 15.7574 17.5 17C17.5 17.5763 17.2834 18.1019 16.9271 18.5C17.2782 18.8923 17.4937 19.4086 17.4999 19.9751C20.0266 19.7243 22 17.5925 22 14.9998C22 13.3402 21.1914 11.8694 19.9468 10.9599C19.1204 10.3561 18.1018 9.99976 17 9.99976C16.4547 9.99976 15.9299 10.087 15.4386 10.2484C14.7677 8.68047 13.5408 7.4071 12.0058 6.67617C11.0951 6.24248 10.0759 5.99976 9 5.99976C5.13401 5.99976 2 9.13376 2 12.9998Z" fill="#28303F"/>
</svg>
