<svg width="24" height="24" viewBox="0 0 24 24" fill="none" xmlns="http://www.w3.org/2000/svg">
<path fill-rule="evenodd" clip-rule="evenodd" d="M10.5303 4.96955L11.25 5.68922V1.99988C11.25 1.58566 11.5858 1.24988 12 1.24988C12.4142 1.24988 12.75 1.58566 12.75 1.99988V5.68922L13.4697 4.96955C13.7626 4.67666 14.2374 4.67666 14.5303 4.96955C14.8232 5.26244 14.8232 5.73732 14.5303 6.03021L13.2374 7.3231C12.554 8.00652 11.446 8.00652 10.7626 7.3231L9.46967 6.03021C9.17678 5.73731 9.17678 5.26244 9.46967 4.96955C9.76256 4.67665 10.2374 4.67665 10.5303 4.96955ZM20.0585 8.75234C20.3514 8.45945 20.3514 7.98457 20.0585 7.69168C19.7656 7.39879 19.2908 7.39879 18.9979 7.69168L17.5837 9.10589C17.2908 9.39879 17.2908 9.87366 17.5837 10.1666C17.8765 10.4594 18.3514 10.4594 18.6443 10.1666L20.0585 8.75234ZM3.44146 7.69157C3.73436 7.39867 4.20923 7.39867 4.50212 7.69157L5.91634 9.10578C6.20923 9.39867 6.20923 9.87355 5.91634 10.1664C5.62344 10.4593 5.14857 10.4593 4.85568 10.1664L3.44146 8.75223C3.14857 8.45933 3.14857 7.98446 3.44146 7.69157ZM2.75 15.25C2.33579 15.25 2 15.5858 2 16C2 16.4142 2.33579 16.75 2.75 16.75H20.75C21.1642 16.75 21.5 16.4142 21.5 16C21.5 15.5858 21.1642 15.25 20.75 15.25H18.4588C18.0857 11.875 15.2244 9.24997 11.75 9.24997C8.27558 9.24997 5.41428 11.875 5.0412 15.25H2.75ZM5 19C5 18.5858 5.33579 18.25 5.75 18.25H17.75C18.1642 18.25 18.5 18.5858 18.5 19C18.5 19.4142 18.1642 19.75 17.75 19.75H5.75C5.33579 19.75 5 19.4142 5 19ZM8.75 21.25C8.33579 21.25 8 21.5858 8 22C8 22.4142 8.33579 22.75 8.75 22.75H14.75C15.1642 22.75 15.5 22.4142 15.5 22C15.5 21.5858 15.1642 21.25 14.75 21.25H8.75Z" fill="#28303F"/>
</svg>
