<svg width="24" height="24" viewBox="0 0 24 24" fill="none" xmlns="http://www.w3.org/2000/svg">
<path opacity="0.4" d="M2 12C2 16.4791 4.94479 20.2704 9.00393 21.5434C9.94983 21.8401 10.9562 22 12 22C14.968 22 17.6339 20.707 19.4653 18.6536C21.0419 16.886 22 14.5549 22 12C22 11.4872 21.9614 10.9835 21.887 10.4915C21.4202 7.40643 19.5439 4.78379 16.9352 3.30067C15.4791 2.47281 13.7948 2 12 2C9.53976 2 7.28704 2.88844 5.54515 4.36199C3.37676 6.19634 2 8.93739 2 12Z" fill="#28303F"/>
<path d="M11.1057 9.79835C10.8083 10.4154 10.5302 11.0443 10.2725 11.6842C9.06803 11.4092 7.81626 11.264 6.53136 11.264C4.9645 11.264 3.4454 11.4801 2.00064 11.8852C2.00021 11.9233 2 11.9616 2 11.9998C2 12.4815 2.03405 12.9552 2.09988 13.4187C3.50563 12.9926 4.99243 12.764 6.53136 12.764C7.63046 12.764 8.70385 12.8808 9.74062 13.1031C8.85164 15.662 8.28076 18.3786 8.07732 21.2011C8.37887 21.3298 8.68802 21.4442 9.00393 21.5433C9.18315 21.5995 9.36454 21.6508 9.54795 21.697C9.71812 18.8293 10.2858 16.0744 11.1941 13.491C14.326 14.4949 17.0474 16.4845 19.0225 19.1192C19.175 18.9687 19.3227 18.8134 19.4653 18.6534C19.6626 18.4322 19.8502 18.2022 20.0275 17.964C17.9062 15.2376 15.0313 13.1631 11.728 12.0867C11.9598 11.5206 12.2083 10.9637 12.4728 10.4167C14.4046 11.189 16.504 11.6129 18.7001 11.6129C19.8193 11.6129 20.9143 11.5027 21.9753 11.292C21.9565 11.022 21.9269 10.755 21.887 10.4913C21.852 10.26 21.8091 10.0314 21.7585 9.80557C20.7694 10.0072 19.7469 10.1129 18.7001 10.1129C16.7539 10.1129 14.8882 9.74692 13.1637 9.07641C14.2849 7.03145 15.6366 5.14166 17.1817 3.4453C17.1003 3.3959 17.0181 3.34762 16.9352 3.30049C16.5688 3.09218 16.188 2.90635 15.7945 2.74487C14.2583 4.47858 12.912 6.39659 11.7896 8.46316C9.62368 7.36707 7.73173 5.77094 6.2525 3.8155C6.00847 3.98719 5.77246 4.16952 5.54515 4.36181C5.39027 4.49283 5.23943 4.62848 5.09284 4.76854C6.6994 6.87713 8.75257 8.6058 11.1057 9.79835Z" fill="#28303F"/>
</svg>
