<svg width="24" height="24" viewBox="0 0 24 24" fill="none" xmlns="http://www.w3.org/2000/svg">
<g opacity="0.4">
<path d="M2.89645 10.7965L18.2851 4.14588C19.0088 3.83312 19.7929 4.44171 19.6695 5.22035L17.5655 18.4963C17.4355 19.3164 16.4206 19.63 15.8506 19.0263L12.3977 15.3687C11.7206 14.6515 11.6675 13.5476 12.2727 12.7687L14.7107 9.63096C14.8501 9.45158 14.63 9.21561 14.4414 9.34216L9.59406 12.594C8.77148 13.1458 7.77341 13.3728 6.79309 13.231L3.15003 12.7041C2.15204 12.5598 1.97083 11.1965 2.89645 10.7965Z" fill="#28303F"/>
</g>
<path fill-rule="evenodd" clip-rule="evenodd" d="M19.411 4.3791L14.6491 9.33221C14.5897 9.29835 14.5133 9.29394 14.4414 9.34216L9.59406 12.594C8.77148 13.1458 7.77341 13.3728 6.79309 13.231L3.15003 12.7041C2.15204 12.5598 1.97083 11.1965 2.89645 10.7965L18.2851 4.14588C18.7021 3.96569 19.139 4.09132 19.411 4.3791Z" fill="#28303F"/>
</svg>
