<svg width="24" height="24" viewBox="0 0 24 24" fill="none" xmlns="http://www.w3.org/2000/svg">
<path opacity="0.4" d="M17 2H7C5.34315 2 4 3.34315 4 5V19H20V5C20 3.34315 18.6569 2 17 2Z" fill="#28303F"/>
<path d="M20 16H7C5.34315 16 4 17.3431 4 19C4 20.6569 5.34315 22 7 22H17C18.6569 22 20 20.6569 20 19V16Z" fill="#28303F"/>
<path d="M12.221 7.43079L12 7.65176L11.779 7.43079C11.1688 6.8206 10.1795 6.8206 9.56933 7.43079C8.95914 8.04098 8.95914 9.0303 9.56933 9.6405L11.1161 11.1873C11.6043 11.6755 12.3957 11.6755 12.8839 11.1873L14.4307 9.6405C15.0409 9.0303 15.0409 8.04098 14.4307 7.43079C13.8205 6.8206 12.8312 6.8206 12.221 7.43079Z" fill="#28303F"/>
</svg>
