<svg width="24" height="24" viewBox="0 0 24 24" fill="none" xmlns="http://www.w3.org/2000/svg">
<path fill-rule="evenodd" clip-rule="evenodd" d="M7.33923 12.0941V16.8263C7.33923 17.9309 8.23466 18.8263 9.33923 18.8263H14.6608C15.7653 18.8263 16.6608 17.9309 16.6608 16.8263V12.0941L13.4197 13.5346C12.5158 13.9363 11.4841 13.9363 10.5803 13.5346L7.33923 12.0941ZM19.5737 10.7994V15.9132C19.5737 16.3959 19.965 16.7871 20.4476 16.7871C20.9303 16.7871 21.3215 16.3959 21.3215 15.9132V10.0215C21.3109 10.027 21.3 10.0322 21.2888 10.0371L19.5737 10.7994Z" fill="#28303F"/>
<path opacity="0.4" d="M2.71109 8.97227L10.5803 5.47486C11.4841 5.07316 12.5158 5.07316 13.4196 5.47486L21.2888 8.97227C21.7501 9.1773 21.7501 9.83202 21.2888 10.037L13.4196 13.5345C12.5158 13.9362 11.4841 13.9362 10.5803 13.5345L2.71109 10.037C2.24979 9.83202 2.24979 9.1773 2.71109 8.97227Z" fill="#28303F"/>
</svg>
