<svg width="24" height="24" viewBox="0 0 24 24" fill="none" xmlns="http://www.w3.org/2000/svg">
<path opacity="0.4" fill-rule="evenodd" clip-rule="evenodd" d="M12 14C12 14 7 9.76142 7 7C7 6.79256 7.01263 6.58807 7.03717 6.38726C6.24817 6.20765 5.48103 6.08659 4.7949 6.01002C3.80678 5.89974 3 6.71469 3 7.72016V17.7333C3 18.7388 3.80678 19.554 4.7949 19.6643C6.79144 19.8871 9.47382 20.4865 11.3851 21.8093C11.5688 21.9364 11.7844 22 12 22C12.2156 22 12.4312 21.9364 12.6149 21.8093C14.5262 20.4865 17.2086 19.8871 19.2051 19.6643C20.1932 19.554 21 18.7388 21 17.7333V7.72016C21 6.71469 20.1932 5.89974 19.2051 6.01002C18.519 6.08659 17.7518 6.20765 16.9628 6.38726C16.9874 6.58807 17 6.79256 17 7C17 9.76142 12 14 12 14Z" fill="#28303F"/>
<path fill-rule="evenodd" clip-rule="evenodd" d="M16.9628 6.38726C16.9874 6.58807 17 6.79256 17 7C17 9.76142 12 14 12 14C12 14 7 9.76142 7 7C7 6.79256 7.01263 6.58807 7.03717 6.38726C7.33928 3.91488 9.44602 2 12 2C14.554 2 16.6607 3.91488 16.9628 6.38726ZM12 8.5C12.8284 8.5 13.5 7.82843 13.5 7C13.5 6.17157 12.8284 5.5 12 5.5C11.1716 5.5 10.5 6.17157 10.5 7C10.5 7.82843 11.1716 8.5 12 8.5Z" fill="#28303F"/>
<path d="M11.3851 21.8094C11.5688 21.9365 11.7844 22.0001 12 22.0001C12.2156 22.0001 12.4312 21.9365 12.6149 21.8094C12.6595 21.7785 12.7045 21.748 12.75 21.7179V13.324C12.2987 13.7469 12 14.0001 12 14.0001C12 14.0001 11.7013 13.7469 11.25 13.324V21.7179C11.2955 21.748 11.3405 21.7785 11.3851 21.8094Z" fill="#28303F"/>
</svg>
