<svg width="24" height="24" viewBox="0 0 24 24" fill="none" xmlns="http://www.w3.org/2000/svg">
<path fill-rule="evenodd" clip-rule="evenodd" d="M15.3195 6.54462C15.6124 6.25173 16.0873 6.25173 16.3802 6.54462L19.224 9.38843C20.3661 10.5305 20.3661 12.3821 19.224 13.5241L17.6865 15.0617C17.3936 15.3546 16.9187 15.3546 16.6258 15.0617C16.3329 14.7688 16.3329 14.2939 16.6258 14.001L18.1634 12.4635C18.7196 11.9072 18.7196 11.0054 18.1634 10.4491L15.3195 7.60528C15.0266 7.31239 15.0266 6.83752 15.3195 6.54462Z" fill="#28303F"/>
<g opacity="0.4">
<path d="M15.9608 4.53751C16.9278 3.57051 18.4957 3.57051 19.4627 4.53751C20.4297 5.50451 20.4297 7.07232 19.4627 8.03933L8.43008 19.0718C7.85276 19.6491 7.12458 20.0523 6.32886 20.2351L3.77812 20.8212C3.4184 20.9038 3.09619 20.5816 3.17885 20.2219L3.76493 17.6712C3.94777 16.8755 4.35091 16.1473 4.92823 15.57L15.9608 4.53751Z" fill="#28303F"/>
</g>
<path opacity="0.4" fill-rule="evenodd" clip-rule="evenodd" d="M21.5302 2.46966C21.8231 2.76254 21.8231 3.23741 21.5302 3.53032L18.9928 6.06786L17.9321 5.00723L20.4695 2.46968C20.7624 2.17678 21.2373 2.17677 21.5302 2.46966Z" fill="#28303F"/>
<path d="M3.77804 20.8212L6.32878 20.2351C7.1245 20.0523 7.85268 19.6491 8.43 19.0718L8.59472 18.9071L5.09287 15.4053L4.92815 15.57C4.35083 16.1473 3.94769 16.8755 3.76486 17.6712L3.17877 20.2219C3.09612 20.5816 3.41833 20.9038 3.77804 20.8212Z" fill="#28303F"/>
<path d="M19.4625 8.03933C20.4295 7.07232 20.4295 5.50451 19.4625 4.53751C18.4955 3.57051 16.9277 3.57051 15.9607 4.53751L14.6365 5.8617L18.1383 9.36352L19.4625 8.03933Z" fill="#28303F"/>
</svg>
