<svg width="24" height="24" viewBox="0 0 24 24" fill="none" xmlns="http://www.w3.org/2000/svg">
<path opacity="0.4" d="M2 8.00003C2 6.89546 2.89543 6.00003 4 6.00003H6.29844C6.75258 6.00003 7.1932 5.84547 7.54783 5.56177L10.7506 2.99954C11.481 2.41519 12.519 2.41519 13.2494 2.99954L16.4522 5.56177C16.8068 5.84547 17.2474 6.00003 17.7016 6.00003H20C21.1046 6.00003 22 6.89546 22 8.00003V20C22 21.1046 21.1046 22 20 22H4C2.89543 22 2 21.1046 2 20V8.00003Z" fill="#28303F"/>
<path d="M9 18C9 16.3431 10.3431 15 12 15C13.6569 15 15 16.3431 15 18V22H9V18Z" fill="#28303F"/>
<path d="M14 10C14 8.89543 13.1046 8 12 8C10.8954 8 10 8.89543 10 10C10 11.1046 10.8954 12 12 12C13.1046 12 14 11.1046 14 10Z" fill="#28303F"/>
</svg>
