<svg width="24" height="24" viewBox="0 0 24 24" fill="none" xmlns="http://www.w3.org/2000/svg">
<path fill-rule="evenodd" clip-rule="evenodd" d="M8 8.22211V9.99988C8 12.209 9.79086 13.9999 12 13.9999C14.2091 13.9999 16 12.209 16 9.99988V8.22211L13.2184 9.45837C12.4427 9.80313 11.5573 9.80313 10.7816 9.45837L8 8.22211ZM18.5 7.111V11.4999C18.5 11.9141 18.8358 12.2499 19.25 12.2499C19.6642 12.2499 20 11.9141 20 11.4999V6.44336C19.9909 6.44806 19.9815 6.45254 19.972 6.4568L18.5 7.111Z" fill="#28303F"/>
<path opacity="0.4" d="M4.02801 5.5431L10.7816 2.54152C11.5573 2.19677 12.4427 2.19677 13.2184 2.54152L19.9719 5.5431C20.3678 5.71906 20.3678 6.28095 19.9719 6.45691L13.2184 9.45849C12.4427 9.80324 11.5573 9.80324 10.7816 9.45849L4.02801 6.45691C3.6321 6.28095 3.6321 5.71906 4.02801 5.5431Z" fill="#28303F"/>
<path opacity="0.4" d="M14.2996 15.3996L12.711 17.0059C12.3196 17.4017 11.6804 17.4017 11.289 17.0059L9.70045 15.3996C9.45505 15.1515 9.09681 15.0457 8.762 15.1442C5.95686 15.9691 4 17.8329 4 20.0001C4 21.1046 4.89543 22.0001 6 22.0001H18C19.1046 22.0001 20 21.1046 20 20.0001C20 17.8329 18.0431 15.9691 15.238 15.1442C14.9032 15.0457 14.5449 15.1515 14.2996 15.3996Z" fill="#28303F"/>
</svg>
