<svg width="24" height="24" viewBox="0 0 24 24" fill="none" xmlns="http://www.w3.org/2000/svg">
<path fill-rule="evenodd" clip-rule="evenodd" d="M20.238 10.616V11.6027C20.238 12.829 19.244 13.8231 18.0177 13.8231C16.7914 13.8231 15.7973 12.829 15.7973 11.6027V10.616L17.3414 11.3023C17.7719 11.4936 18.2634 11.4936 18.694 11.3023L20.238 10.616ZM14.4096 9.99926V12.4355C14.4096 12.6654 14.2232 12.8518 13.9933 12.8518C13.7634 12.8518 13.577 12.6654 13.577 12.4355V9.62866C13.582 9.63127 13.5872 9.63376 13.5925 9.63612L14.4096 9.99926Z" fill="#28303F"/>
<path opacity="0.4" d="M22.4428 9.129L18.694 7.46286C18.2635 7.27149 17.772 7.27149 17.3414 7.46286L13.5926 9.129C13.3728 9.22667 13.3728 9.53857 13.5926 9.63625L17.3414 11.3024C17.772 11.4938 18.2635 11.4938 18.694 11.3024L22.4428 9.63625C22.6626 9.53857 22.6626 9.22667 22.4428 9.129Z" fill="#28303F"/>
<path opacity="0.4" fill-rule="evenodd" clip-rule="evenodd" d="M16.317 18.2639H21.3483C21.9615 18.2639 22.4585 17.7668 22.4585 17.1537C22.4585 15.9507 21.3723 14.9162 19.8152 14.4583C19.6293 14.4036 19.4305 14.4623 19.2942 14.6001L18.4125 15.4917C18.1952 15.7114 17.8404 15.7114 17.6231 15.4917L16.7413 14.6001C16.6051 14.4623 16.4063 14.4036 16.2204 14.4583C15.6749 14.6187 15.1872 14.8499 14.7838 15.1343C15.745 16.0138 16.3131 17.0949 16.317 18.2639Z" fill="#28303F"/>
<path opacity="0.4" fill-rule="evenodd" clip-rule="evenodd" d="M11.782 8.30875V9.81417C11.782 11.6849 10.2655 13.2014 8.39476 13.2014C6.52405 13.2014 5.00754 11.6849 5.00754 9.81417V8.30875L7.363 9.35562C8.01986 9.64756 8.76966 9.64756 9.42652 9.35562L11.782 8.30875ZM2.89053 7.36785V11.0844C2.89053 11.4351 2.60618 11.7195 2.25542 11.7195C1.90467 11.7195 1.62032 11.4351 1.62032 11.0844V6.80249C1.62804 6.80647 1.63595 6.81026 1.64406 6.81387L2.89053 7.36785Z" fill="#28303F"/>
<path d="M15.1455 6.04L9.42659 3.49825C8.76973 3.20631 8.01994 3.20631 7.36307 3.49825L1.64414 6.04C1.30888 6.189 1.30888 6.66482 1.64414 6.81382L7.36307 9.35557C8.01994 9.64751 8.76973 9.64751 9.42659 9.35557L15.1455 6.81382C15.4808 6.66482 15.4808 6.189 15.1455 6.04Z" fill="#28303F"/>
<path d="M6.44747 14.3866L7.79265 15.7469C8.12409 16.082 8.66541 16.082 8.99685 15.7469L10.342 14.3866C10.5498 14.1765 10.8532 14.087 11.1367 14.1703C13.5121 14.8689 15.1692 16.4472 15.1692 18.2823C15.1692 19.2177 14.4109 19.9759 13.4756 19.9759H3.31392C2.37856 19.9759 1.62031 19.2177 1.62031 18.2823C1.62031 16.4472 3.27739 14.8689 5.65279 14.1703C5.93631 14.087 6.23967 14.1765 6.44747 14.3866Z" fill="#28303F"/>
</svg>
