<svg width="24" height="24" viewBox="0 0 24 24" fill="none" xmlns="http://www.w3.org/2000/svg">
<path opacity="0.4" d="M10.3755 2.7222L5.3777 4.94345C3.93208 5.58595 2.97809 7.02479 3.07008 8.60408C3.42971 14.7783 5.23776 17.4964 9.93588 20.6771C11.1805 21.5197 12.821 21.5218 14.0647 20.6778C18.7773 17.4798 20.5206 14.7233 20.9119 8.62547C21.0139 7.03574 20.0583 5.58162 18.6026 4.93464L13.6246 2.72219C12.5904 2.26252 11.4098 2.26252 10.3755 2.7222Z" fill="#28303F"/>
<path fill-rule="evenodd" clip-rule="evenodd" d="M15.4939 8.43558C15.8056 8.70834 15.8372 9.18216 15.5645 9.49389L12.6946 12.7738C12.0779 13.4786 11.0156 13.5729 10.2843 12.9879L8.53151 11.5857C8.20806 11.3269 8.15562 10.8549 8.41438 10.5315C8.67313 10.208 9.1451 10.1556 9.46855 10.4144L11.2214 11.8166C11.3258 11.9002 11.4776 11.8867 11.5657 11.786L14.4356 8.50613C14.7084 8.1944 15.1822 8.16282 15.4939 8.43558Z" fill="#28303F"/>
</svg>
