<svg width="24" height="24" viewBox="0 0 24 24" fill="none" xmlns="http://www.w3.org/2000/svg">
<path opacity="0.4" fill-rule="evenodd" clip-rule="evenodd" d="M9.38576 1.35675C9.74094 1.56986 9.85612 2.03056 9.64301 2.38574L6.64301 7.38574C6.4299 7.74093 5.9692 7.8561 5.61401 7.64299C5.25883 7.42988 5.14366 6.96918 5.35677 6.614L8.35677 1.614C8.56988 1.25881 9.03057 1.14364 9.38576 1.35675Z" fill="#28303F"/>
<path opacity="0.4" fill-rule="evenodd" clip-rule="evenodd" d="M18.3858 7.64299C18.0306 7.8561 17.5699 7.74093 17.3568 7.38574L14.3568 2.38574C14.1437 2.03056 14.2588 1.56986 14.614 1.35675C14.9692 1.14364 15.4299 1.25881 15.643 1.614L18.643 6.614C18.8561 6.96918 18.7409 7.42988 18.3858 7.64299Z" fill="#28303F"/>
<path opacity="0.4" d="M20.282 18.808C19.9021 20.6666 18.2806 22 16.4002 22H7.59978C5.71942 22 4.09787 20.6666 3.71804 18.808L2.08312 10.808C1.57594 8.32624 3.45403 6 5.96486 6L18.0351 6C20.546 6 22.4241 8.32624 21.9169 10.808L20.282 18.808Z" fill="#28303F"/>
<path d="M18.0351 6H5.96486C3.72938 6 1.99546 7.84401 2.00001 10H22C22.0045 7.84401 20.2706 6 18.0351 6Z" fill="#28303F"/>
<path fill-rule="evenodd" clip-rule="evenodd" d="M11.25 14.3964L10.5303 15.1161C10.2374 15.409 9.76256 15.409 9.46967 15.1161C9.17678 14.8232 9.17678 14.3483 9.46967 14.0555L10.7626 12.7626C11.446 12.0791 12.554 12.0791 13.2374 12.7626L14.5303 14.0555C14.8232 14.3483 14.8232 14.8232 14.5303 15.1161C14.2374 15.409 13.7626 15.409 13.4697 15.1161L12.75 14.3964V18.5858C12.75 19 12.4142 19.3358 12 19.3358C11.5858 19.3358 11.25 19 11.25 18.5858V14.3964Z" fill="#28303F"/>
</svg>
