<svg width="24" height="24" viewBox="0 0 24 24" fill="none" xmlns="http://www.w3.org/2000/svg">
<path opacity="0.4" d="M15.6116 3H8.3886C6.43325 3 4.76449 4.41365 4.44303 6.3424L2.77636 16.3424C2.37001 18.7805 4.25018 21 6.72194 21H17.2783C19.75 21 21.6302 18.7805 21.2238 16.3424L19.5572 6.3424C19.2357 4.41365 17.5669 3 15.6116 3Z" fill="#28303F"/>
<path fill-rule="evenodd" clip-rule="evenodd" d="M15.75 7C15.75 9.07107 14.0711 10.75 12 10.75C9.92893 10.75 8.25 9.07107 8.25 7L8.25 6C8.25 5.58579 8.58579 5.25 9 5.25C9.41421 5.25 9.75 5.58579 9.75 6L9.75 7C9.75 8.24264 10.7574 9.25 12 9.25C13.2426 9.25 14.25 8.24264 14.25 7L14.25 6C14.25 5.58579 14.5858 5.25 15 5.25C15.4142 5.25 15.75 5.58579 15.75 6L15.75 7Z" fill="#28303F"/>
<path d="M18.5227 15.9169L18.2575 16.182L17.9923 15.9169C17.2601 15.1846 16.0729 15.1846 15.3407 15.9169C14.6084 16.6491 14.6084 17.8363 15.3407 18.5685L17.1968 20.4247C17.7826 21.0104 18.7324 21.0104 19.3182 20.4247L21.1743 18.5685C21.9065 17.8363 21.9065 16.6491 21.1743 15.9169C20.4421 15.1846 19.2549 15.1846 18.5227 15.9169Z" fill="#28303F"/>
</svg>
