<svg width="24" height="24" viewBox="0 0 24 24" fill="none" xmlns="http://www.w3.org/2000/svg">
<path opacity="0.4" fill-rule="evenodd" clip-rule="evenodd" d="M9.38576 1.35675C9.74094 1.56986 9.85612 2.03056 9.64301 2.38574L6.64301 7.38574C6.4299 7.74093 5.9692 7.8561 5.61401 7.64299C5.25883 7.42988 5.14366 6.96918 5.35677 6.614L8.35677 1.614C8.56988 1.25881 9.03057 1.14364 9.38576 1.35675Z" fill="#28303F"/>
<path opacity="0.4" fill-rule="evenodd" clip-rule="evenodd" d="M18.3858 7.64299C18.0306 7.8561 17.5699 7.74093 17.3568 7.38574L14.3568 2.38574C14.1437 2.03056 14.2588 1.56986 14.614 1.35675C14.9692 1.14364 15.4299 1.25881 15.643 1.614L18.643 6.614C18.8561 6.96918 18.7409 7.42988 18.3858 7.64299Z" fill="#28303F"/>
<path opacity="0.4" d="M20.282 18.808C19.9021 20.6666 18.2806 22 16.4002 22H7.59978C5.71942 22 4.09787 20.6666 3.71804 18.808L2.08312 10.808C1.57594 8.32624 3.45403 6 5.96486 6L18.0351 6C20.546 6 22.4241 8.32624 21.9169 10.808L20.282 18.808Z" fill="#28303F"/>
<path d="M18.0351 6H5.96486C3.72938 6 1.99546 7.84401 2.00001 10H22C22.0045 7.84401 20.2706 6 18.0351 6Z" fill="#28303F"/>
<path fill-rule="evenodd" clip-rule="evenodd" d="M11.25 17.1892L10.5303 16.4696C10.2374 16.1767 9.76256 16.1767 9.46967 16.4696C9.17678 16.7625 9.17678 17.2373 9.46967 17.5302L10.7626 18.8231C11.446 19.5065 12.554 19.5065 13.2374 18.8231L14.5303 17.5302C14.8232 17.2373 14.8232 16.7625 14.5303 16.4696C14.2374 16.1767 13.7626 16.1767 13.4697 16.4696L12.75 17.1892V12.9999C12.75 12.5857 12.4142 12.2499 12 12.2499C11.5858 12.2499 11.25 12.5857 11.25 12.9999V17.1892Z" fill="#28303F"/>
</svg>
