<svg width="24" height="24" viewBox="0 0 24 24" fill="none" xmlns="http://www.w3.org/2000/svg">
<path d="M3.2 3L20.8 21M14.2 14.5156C13.6162 15.05 12.8452 15.375 12 15.375C10.1775 15.375 8.7 13.864 8.7 12C8.7 11.1356 9.01774 10.3471 9.54028 9.75M20.3685 16.0587C20.997 15.499 21.5593 14.9361 22.0433 14.4153C23.3189 13.0427 23.3189 10.9573 22.0433 9.58474C19.892 7.26975 16.1971 4.125 12 4.125C11.0195 4.125 10.0664 4.29663 9.15397 4.58922M5.95 6.15381C4.34558 7.20124 2.9774 8.48638 1.95668 9.58474C0.681108 10.9573 0.681108 13.0427 1.95668 14.4153C4.10804 16.7302 7.80293 19.875 12 19.875C14.0549 19.875 15.9894 19.1212 17.6813 18.08" stroke="#28303F" stroke-width="1.5" stroke-linecap="round"/>
</svg>
