<svg width="24" height="24" viewBox="0 0 24 24" fill="none" xmlns="http://www.w3.org/2000/svg">
<path d="M22.0433 9.5464C23.3189 10.9408 23.3189 13.0592 22.0433 14.4536C19.892 16.8053 16.1971 20 12 20C7.80293 20 4.10804 16.8053 1.95668 14.4536C0.681108 13.0592 0.681108 10.9408 1.95668 9.5464C4.10804 7.19467 7.80293 4 12 4C16.1971 4 19.892 7.19467 22.0433 9.5464Z" stroke="#28303F" stroke-width="1.5"/>
<path d="M15.3 12C15.3 13.8935 13.8225 15.4286 12 15.4286C10.1775 15.4286 8.7 13.8935 8.7 12C8.7 10.1065 10.1775 8.57143 12 8.57143C13.8225 8.57143 15.3 10.1065 15.3 12Z" stroke="#28303F" stroke-width="1.5"/>
</svg>
