<svg width="24" height="24" viewBox="0 0 24 24" fill="none" xmlns="http://www.w3.org/2000/svg">
<path d="M16.5 7.6H7.5M16.5 7.6C18.9853 7.6 21 9.56995 21 12V18.6C21 21.0301 18.9853 23 16.5 23H7.5C5.01472 23 3 21.0301 3 18.6V12C3 9.56995 5.01472 7.6 7.5 7.6M16.5 7.6V5.4C16.5 2.96995 14.4853 1 12 1C9.51472 1 7.5 2.96995 7.5 5.4V7.6M14.25 15.3C14.25 16.515 13.2426 17.5 12 17.5C10.7574 17.5 9.75 16.515 9.75 15.3C9.75 14.085 10.7574 13.1 12 13.1C13.2426 13.1 14.25 14.085 14.25 15.3Z" stroke="#28303F" stroke-width="1.5" stroke-linecap="round" stroke-linejoin="round"/>
</svg>
