<svg width="24" height="24" viewBox="0 0 24 24" fill="none" xmlns="http://www.w3.org/2000/svg">
<path d="M10.3755 2.72195L5.3777 4.94321C3.93208 5.5857 2.97809 7.02455 3.07008 8.60384C3.42971 14.7781 5.23776 17.4962 9.93588 20.6769C11.1805 21.5195 12.821 21.5215 14.0647 20.6776C18.7773 17.4796 20.5206 14.723 20.9119 8.62522C21.0139 7.03549 20.0583 5.58138 18.6026 4.9344L13.6246 2.72195C12.5904 2.26228 11.4098 2.26228 10.3755 2.72195Z" stroke="#28303F" stroke-width="1.5"/>
<path d="M15.0001 11.9999C15.0001 13.6568 13.6569 14.9999 12.0001 14.9999C10.3432 14.9999 9.00008 13.6568 9.00008 11.9999C9.00008 10.3431 10.3432 8.99993 12.0001 8.99993C13.6569 8.99993 15.0001 10.3431 15.0001 11.9999Z" stroke="#28303F" stroke-width="1.5"/>
</svg>
