<svg width="24" height="24" viewBox="0 0 24 24" fill="none" xmlns="http://www.w3.org/2000/svg">
<path fill-rule="evenodd" clip-rule="evenodd" d="M12.75 2.75C12.75 2.33579 12.4142 2 12 2C11.5858 2 11.25 2.33579 11.25 2.75V4.75C11.25 5.16421 11.5858 5.5 12 5.5C12.4142 5.5 12.75 5.16421 12.75 4.75V2.75ZM3.53033 5.21967C3.23744 4.92678 2.76256 4.92678 2.46967 5.21967C2.17678 5.51256 2.17678 5.98744 2.46967 6.28033L3.96967 7.78033C4.26256 8.07322 4.73744 8.07322 5.03033 7.78033C5.32322 7.48744 5.32322 7.01256 5.03033 6.71967L3.53033 5.21967ZM21.5303 6.28033C21.8232 5.98744 21.8232 5.51256 21.5303 5.21967C21.2374 4.92678 20.7626 4.92678 20.4697 5.21967L18.9697 6.71967C18.6768 7.01256 18.6768 7.48744 18.9697 7.78033C19.2626 8.07322 19.7374 8.07322 20.0303 7.78033L21.5303 6.28033ZM20.8772 12.3212C22.3743 13.7543 22.3743 16.2459 20.8772 17.679C18.8134 19.6546 15.6042 22.0001 12 22.0001C8.3958 22.0001 5.18661 19.6546 3.12281 17.679C1.62573 16.2459 1.62573 13.7543 3.12281 12.3212C5.18661 10.3456 8.3958 8.00012 12 8.00012C15.6042 8.00012 18.8134 10.3456 20.8772 12.3212ZM15 15.0001C15 16.657 13.6568 18.0001 12 18.0001C10.3431 18.0001 8.99997 16.657 8.99997 15.0001C8.99997 13.3433 10.3431 12.0001 12 12.0001C13.6568 12.0001 15 13.3433 15 15.0001Z" fill="#28303F"/>
</svg>
