<svg width="24" height="24" viewBox="0 0 24 24" fill="none" xmlns="http://www.w3.org/2000/svg">
<path d="M16.75 19.829C18.4424 19.373 20.2888 18.1056 21.2778 17.3578C21.7446 17.0048 22 16.4481 22 15.8629V6.19352C22 5.34007 20.9721 4.84516 20.2637 5.32119C19.2635 5.99332 17.9669 6.74078 16.75 7.06867V19.829Z" fill="#28303F"/>
<path d="M12 18.3802C11.014 17.6301 10.0281 16.8801 8.75 16.7733V4.01294C10.0281 4.11972 11.014 4.86977 12 5.61981C12.986 6.36986 13.9719 7.1199 15.25 7.22669V19.987C13.9719 19.8803 12.9859 19.1302 12 18.3802Z" fill="#28303F"/>
<path d="M2.72215 6.64221C3.71116 5.8944 5.55765 4.62695 7.25 4.17096V16.9313C6.03308 17.2592 4.73646 18.0067 3.73627 18.6788C3.0279 19.1548 2 18.6599 2 17.8065V8.13705C2 7.55186 2.25538 6.99515 2.72215 6.64221Z" fill="#28303F"/>
</svg>
