<svg width="24" height="24" viewBox="0 0 24 24" fill="none" xmlns="http://www.w3.org/2000/svg">
<path d="M16.75 11.9401V21.8078C18.4424 21.3518 20.2888 20.0843 21.2778 19.3365C21.7446 18.9836 22 18.4269 22 17.8417V8.17228C22 7.31883 20.9721 6.82393 20.2637 7.29995C19.7563 7.64095 19.1726 8.00133 18.5616 8.31648C18.4698 8.91464 18.2981 9.4871 18.0576 10.022C17.736 10.7374 17.2912 11.3858 16.75 11.9401Z" fill="#28303F"/>
<path d="M8.75 13.0928V18.752C10.0281 18.8588 11.014 19.6088 12 20.3588C12.9859 21.1089 13.9719 21.8589 15.25 21.9657V13.0925C14.2897 13.6328 13.1811 13.9412 11.9999 13.9412C10.8191 13.9412 9.7105 13.6331 8.75 13.0928Z" fill="#28303F"/>
<path d="M5.37224 6.91487C4.31647 7.46684 3.34776 8.1478 2.72215 8.62083C2.25538 8.97377 2 9.53049 2 10.1157V19.7851C2 20.6385 3.0279 21.1334 3.73627 20.6574C4.73646 19.9853 6.03308 19.2378 7.25 18.9099V11.9404C6.26647 10.9331 5.60065 9.61397 5.4142 8.145C5.3791 7.86849 5.36108 7.58722 5.36108 7.30236C5.36108 7.17238 5.36484 7.04318 5.37224 6.91487Z" fill="#28303F"/>
<path fill-rule="evenodd" clip-rule="evenodd" d="M17.2827 7.85517C17.3015 7.67346 17.3111 7.48904 17.3111 7.30237C17.3111 4.36914 14.9333 1.99128 12.0001 1.99128C9.50877 1.99128 7.41812 3.70657 6.84468 6.02057C6.74295 6.43107 6.68896 6.86042 6.68896 7.30237C6.68896 7.53119 6.70344 7.75663 6.73151 7.97783C7.06334 10.5921 9.29564 12.6135 12.0001 12.6135C14.1582 12.6135 16.0157 11.3262 16.8467 9.47768C17.0732 8.97367 17.2235 8.42793 17.2827 7.85517ZM9.56368 7.67043L10.9049 8.11751C11.0371 8.16156 11.1408 8.26527 11.1848 8.39743L11.6319 9.73867C11.7606 10.1248 12.2983 10.1471 12.4586 9.77305L14.2197 5.66377C14.3771 5.29655 14.0058 4.92524 13.6386 5.08262L9.5293 6.84374C9.15523 7.00406 9.1776 7.54173 9.56368 7.67043Z" fill="#28303F"/>
</svg>
