<svg width="24" height="24" viewBox="0 0 24 24" fill="none" xmlns="http://www.w3.org/2000/svg">
<path d="M16.75 11.1514V21.8913C18.4424 21.4353 20.2888 20.1678 21.2778 19.42C21.7446 19.0671 22 18.5104 22 17.9252V8.25576C22 7.40231 20.9721 6.9074 20.2637 7.38343C19.576 7.84558 18.7481 8.34335 17.9024 8.71585C17.8843 8.77006 17.8658 8.82409 17.847 8.87792C17.5779 9.64437 17.2039 10.4295 16.75 11.1514Z" fill="#28303F"/>
<path d="M8.75 11.975V18.8354C10.0281 18.9422 11.014 19.6923 12 20.4423C12.9859 21.1923 13.9719 21.9424 15.25 22.0492V12.977C14.5035 13.6496 13.5564 14.1941 12.462 14.1941C11.4821 14.1941 10.6263 13.7525 9.95708 13.218C9.51478 12.8649 9.11057 12.4377 8.75 11.975Z" fill="#28303F"/>
<path d="M6.58941 6.44749C5.09544 7.00773 3.58355 8.05324 2.72215 8.70457C2.25538 9.05751 2 9.61422 2 10.1994V19.8688C2 20.7223 3.0279 21.2172 3.73627 20.7412C4.73646 20.069 6.03308 19.3216 7.25 18.9937V9.33707C6.8583 8.36314 6.6092 7.35041 6.58941 6.44749Z" fill="#28303F"/>
<path fill-rule="evenodd" clip-rule="evenodd" d="M16.5679 8.42953C16.8299 7.68311 16.9803 6.9508 16.9803 6.33268C16.9803 3.93708 14.9574 1.99506 12.462 1.99506C10.1471 1.99506 8.23881 3.66622 7.97479 5.82037C7.95419 5.98839 7.9436 6.15935 7.9436 6.33268C7.9436 8.72829 10.2028 12.8391 12.462 12.8391C14.1382 12.8391 15.8145 10.576 16.5679 8.42953ZM12.462 7.41703C13.2106 7.41703 13.8175 6.81015 13.8175 6.06152C13.8175 5.3129 13.2106 4.70602 12.462 4.70602C11.7133 4.70602 11.1064 5.3129 11.1064 6.06152C11.1064 6.81015 11.7133 7.41703 12.462 7.41703Z" fill="#28303F"/>
</svg>
