<svg width="24" height="24" viewBox="0 0 24 24" fill="none" xmlns="http://www.w3.org/2000/svg">
<path d="M16.75 13.7575V21.8528C18.4424 21.3968 20.2888 20.1294 21.2778 19.3816C21.7446 19.0287 22 18.4719 22 17.8867V8.21734C22 7.69666 21.6174 7.30945 21.1582 7.19473C21.0766 7.72283 20.9333 8.26111 20.7512 8.77998C20.3321 9.97405 19.6546 11.2142 18.8164 12.1815C18.2813 12.7991 17.5806 13.4175 16.75 13.7575Z" fill="#28303F"/>
<path d="M9.6457 6.22305C9.36195 6.12829 9.06484 6.06296 8.75 6.03665V18.797C10.0281 18.9038 11.014 19.6538 12 20.4039C12.9859 21.1539 13.9719 21.904 15.25 22.0108V14.0183C14.3625 13.966 13.5853 13.5535 12.9686 13.0611C12.3006 12.5276 11.7206 11.8231 11.2483 11.0834C10.3246 9.63622 9.64551 7.78324 9.64551 6.26881C9.64551 6.25355 9.64557 6.23829 9.6457 6.22305Z" fill="#28303F"/>
<path d="M2.72215 8.66601C3.71116 7.9182 5.55765 6.65076 7.25 6.19476V18.9551C6.03308 19.283 4.73646 20.0305 3.73627 20.7026C3.0279 21.1786 2 20.6837 2 19.8303V10.1609C2 9.57567 2.25538 9.01895 2.72215 8.66601Z" fill="#28303F"/>
<path fill-rule="evenodd" clip-rule="evenodd" d="M19.4894 8.33747C19.7479 7.6012 19.8962 6.87885 19.8962 6.26914C19.8962 3.90612 17.9008 1.99051 15.4393 1.99051C13.1559 1.99051 11.2736 3.63894 11.0132 5.7638C10.9929 5.92953 10.9824 6.09817 10.9824 6.26914C10.9824 8.63217 13.2109 12.6871 15.4393 12.6871C17.0928 12.6871 18.7463 10.4547 19.4894 8.33747ZM15.4394 7.33874C16.1778 7.33874 16.7764 6.74012 16.7764 6.00167C16.7764 5.26323 16.1778 4.6646 15.4394 4.6646C14.7009 4.6646 14.1023 5.26323 14.1023 6.00167C14.1023 6.74012 14.7009 7.33874 15.4394 7.33874Z" fill="#28303F"/>
</svg>
