<svg width="24" height="24" viewBox="0 0 24 24" fill="none" xmlns="http://www.w3.org/2000/svg">
<path opacity="0.4" d="M21.9813 4.0651C22.151 2.85824 21.141 1.849 19.9342 2.0187C13.046 2.98731 7.59631 8.43705 6.62771 15.3252C6.45801 16.5321 7.46724 17.542 8.6741 17.3723C11.2473 17.0106 13.6198 16.0235 15.6329 14.5697C16.0381 14.2771 16.262 13.8 16.262 13.3002C16.262 12.3905 16.9995 11.653 17.9092 11.653C18.409 11.653 18.886 11.4291 19.1787 11.0239C20.6325 9.01079 21.6196 6.6383 21.9813 4.0651Z" fill="#28303F"/>
<path fill-rule="evenodd" clip-rule="evenodd" d="M12.5976 11.4023C12.8905 11.6952 12.8905 12.1701 12.5976 12.4629L2.53033 22.5303C2.23744 22.8232 1.76256 22.8232 1.46967 22.5303C1.17678 22.2374 1.17678 21.7625 1.46967 21.4696L11.537 11.4023C11.8299 11.1094 12.3047 11.1094 12.5976 11.4023Z" fill="#28303F"/>
</svg>
