<svg width="24" height="24" viewBox="0 0 24 24" fill="none" xmlns="http://www.w3.org/2000/svg">
<path opacity="0.4" d="M16 5H8C5.23858 5 3 7.23858 3 10V15C3 17.2091 4.79086 19 7 19H17C19.2091 19 21 17.2091 21 15V10C21 7.23858 18.7614 5 16 5Z" fill="#28303F"/>
<path d="M17 18.9999V20.4999C17 21.3284 16.3284 21.9999 15.5 21.9999C14.6716 21.9999 14 21.3284 14 20.4999V18.9999H17Z" fill="#28303F"/>
<path d="M13 14.9999V9.99995C13 7.23852 10.7614 4.99995 8 4.99995C5.23858 4.99995 3 7.23852 3 9.99995V14.9999C3 17.2091 4.79086 18.9999 7 18.9999H9C11.2091 18.9999 13 17.2091 13 14.9999Z" fill="#28303F"/>
<path fill-rule="evenodd" clip-rule="evenodd" d="M17.5077 1.97274C16.8173 1.97274 16.2577 2.31157 16.2577 2.72954V4.99995C16.2577 4.99995 16.2577 4.99995 15.5077 4.99995C14.7577 4.99995 14.7577 4.99995 14.7577 4.99995V2.72954C14.7577 1.81001 15.9889 1.06458 17.5077 1.06458H18.5077C18.9219 1.06458 19.2577 1.26787 19.2577 1.51866C19.2577 1.76944 18.9219 1.97274 18.5077 1.97274H17.5077Z" fill="#28303F"/>
</svg>
