<svg width="24" height="24" viewBox="0 0 24 24" fill="none" xmlns="http://www.w3.org/2000/svg">
<path fill-rule="evenodd" clip-rule="evenodd" d="M19.25 6.18928L18.5303 5.46961C18.2374 5.17671 17.7626 5.17671 17.4697 5.46961C17.1768 5.7625 17.1768 6.23737 17.4697 6.53027L18.7626 7.82316C19.446 8.50658 20.554 8.50658 21.2374 7.82316L22.5303 6.53027C22.8232 6.23737 22.8232 5.7625 22.5303 5.46961C22.2374 5.17671 21.7626 5.17671 21.4697 5.46961L20.75 6.18928L20.75 1.99994C20.75 1.58572 20.4142 1.24994 20 1.24994C19.5858 1.24994 19.25 1.58572 19.25 1.99994L19.25 6.18928Z" fill="#28303F"/>
<path opacity="0.4" d="M2 10C2 8.34318 3.34315 7.00003 5 7.00003H15C16.6569 7.00003 18 8.34318 18 10V18C18 19.6569 16.6569 21 15 21H5C3.34315 21 2 19.6569 2 18V10Z" fill="#28303F"/>
<path fill-rule="evenodd" clip-rule="evenodd" d="M5.40004 11.5501C5.64857 11.2187 6.11867 11.1515 6.45004 11.4001L8.65004 13.0501C9.45004 13.6501 10.55 13.6501 11.35 13.0501L13.55 11.4001C13.8814 11.1515 14.3515 11.2187 14.6 11.5501C14.8486 11.8814 14.7814 12.3515 14.45 12.6001L12.25 14.2501C10.9167 15.2501 9.08338 15.2501 7.75004 14.2501L5.55004 12.6001C5.21867 12.3515 5.15152 11.8814 5.40004 11.5501Z" fill="#28303F"/>
</svg>
