<svg width="24" height="24" viewBox="0 0 24 24" fill="none" xmlns="http://www.w3.org/2000/svg">
<path d="M20 8V7C20 5.34315 18.6568 4 17 4H14.1975C13.5294 4 12.8805 3.77702 12.3535 3.3664L11.4131 2.6336C10.8862 2.22298 10.2372 2 9.56917 2H7C5.34314 2 3.99999 3.34315 3.99999 5V8H20Z" stroke="#28303F" stroke-width="1.5" stroke-linecap="round" stroke-linejoin="round"/>
<path d="M20.526 8H3.47397C2.20068 8 1.25157 9.17404 1.51836 10.4191L3.32245 18.8381C3.71765 20.6824 5.34751 22 7.23366 22H16.7663C18.6525 22 20.2823 20.6824 20.6775 18.8381L22.4816 10.4191C22.7484 9.17403 21.7993 8 20.526 8Z" stroke="#28303F" stroke-width="1.5" stroke-linecap="round" stroke-linejoin="round"/>
</svg>
