<svg width="24" height="24" viewBox="0 0 24 24" fill="none" xmlns="http://www.w3.org/2000/svg">
<path d="M8.99999 15L10.7528 16.4023C11.1707 16.7366 11.7777 16.6826 12.1301 16.2799L15 13M20 7V8H3.99999V5C3.99999 3.34315 5.34314 2 7 2H9.56917C10.2372 2 10.8862 2.22298 11.4131 2.6336L12.3535 3.3664C12.8805 3.77702 13.5294 4 14.1975 4H17C18.6568 4 20 5.34315 20 7ZM3.47397 8H20.526C21.7993 8 22.7484 9.17403 22.4816 10.4191L20.6775 18.8381C20.2823 20.6824 18.6525 22 16.7663 22H7.23366C5.34751 22 3.71765 20.6824 3.32245 18.8381L1.51836 10.4191C1.25157 9.17404 2.20068 8 3.47397 8Z" stroke="#28303F" stroke-width="1.5" stroke-linecap="round" stroke-linejoin="round"/>
</svg>
