<svg width="24" height="24" viewBox="0 0 24 24" fill="none" xmlns="http://www.w3.org/2000/svg">
<path fill-rule="evenodd" clip-rule="evenodd" d="M12.75 2C12.75 1.58579 12.4142 1.25 12 1.25C11.5858 1.25 11.25 1.58579 11.25 2V4.03469C11.4969 4.01173 11.7471 4 12 4C12.2529 4 12.5031 4.01174 12.75 4.0347V2ZM19.9653 12.75C19.9882 12.5031 20 12.2529 20 12C20 11.7471 19.9882 11.4969 19.9653 11.25H22C22.4142 11.25 22.75 11.5858 22.75 12C22.75 12.4142 22.4142 12.75 22 12.75H19.9653Z" fill="#28303F"/>
<path opacity="0.4" fill-rule="evenodd" clip-rule="evenodd" d="M1.25 12C1.25 11.5858 1.58579 11.25 2 11.25H5C5.41421 11.25 5.75 11.5858 5.75 12C5.75 12.4142 5.41421 12.75 5 12.75H2C1.58579 12.75 1.25 12.4142 1.25 12ZM12 18.25C12.4142 18.25 12.75 18.5858 12.75 19V22C12.75 22.4142 12.4142 22.75 12 22.75C11.5858 22.75 11.25 22.4142 11.25 22V19C11.25 18.5858 11.5858 18.25 12 18.25Z" fill="#28303F"/>
<path fill-rule="evenodd" clip-rule="evenodd" d="M15.0615 19.391C16.0321 18.989 16.914 18.3997 17.6569 17.6568L14.1213 14.1213C13.5784 14.6642 12.8284 15 12 15C10.3431 15 9 13.6568 9 12C9 11.1716 9.33579 10.4216 9.87868 9.87867L6.34315 6.34314C5.60028 7.08601 5.011 7.96792 4.60896 8.93853C4.20693 9.90913 4 10.9494 4 12C4 13.0506 4.20693 14.0909 4.60896 15.0615C5.011 16.0321 5.60028 16.914 6.34315 17.6568C7.08601 18.3997 7.96793 18.989 8.93853 19.391C9.90914 19.7931 10.9494 20 12 20C13.0506 20 14.0909 19.7931 15.0615 19.391Z" fill="#28303F"/>
<path fill-rule="evenodd" clip-rule="evenodd" d="M2.46967 2.46967C2.76256 2.17678 3.23744 2.17678 3.53033 2.46967L21.5303 20.4697C21.8232 20.7626 21.8232 21.2374 21.5303 21.5303C21.2374 21.8232 20.7626 21.8232 20.4697 21.5303L2.46967 3.53033C2.17678 3.23744 2.17678 2.76256 2.46967 2.46967Z" fill="#28303F"/>
<path opacity="0.4" fill-rule="evenodd" clip-rule="evenodd" d="M12 4C16.4182 4 20 7.58172 20 12C20 13.9391 19.3101 15.717 18.1624 17.1018L6.89819 5.83758C8.28295 4.68988 10.0609 4 12 4ZM12 9C13.6569 9 15 10.3431 15 12C15 12.5564 14.8486 13.0773 14.5847 13.524L10.4761 9.41536C10.9227 9.15145 11.4437 9 12 9Z" fill="#28303F"/>
</svg>
