<svg width="24" height="24" viewBox="0 0 24 24" fill="none" xmlns="http://www.w3.org/2000/svg">
<g opacity="0.4">
<path d="M12.8481 9.64155C12.2282 9.33279 11.6632 8.90297 11.0981 8.47315C9.92772 7.58277 8.7573 6.69239 7.09814 6.8781C5.57956 7.04808 3.7928 8.10372 2.56642 8.95482C1.60491 9.6221 1.09814 10.7422 1.09814 11.9126V20.6598C1.09814 21.5132 2.12604 22.0082 2.83441 21.5321C4.0439 20.7194 5.68683 19.7964 7.09814 19.6385C8.7573 19.4527 9.92772 20.3431 11.0981 21.2335C12.2686 22.1239 13.439 23.0143 15.0981 22.8285C16.6167 22.6586 18.4035 21.6029 19.6299 20.7518C20.5914 20.0846 21.0981 18.9644 21.0981 17.7941V9.81919C21.0981 9.09782 20.3535 8.60356 19.6768 8.8536C18.978 9.11184 18.0893 9.41394 17.1696 9.65801V12.8533C17.1696 14.096 16.2022 15.1033 15.0089 15.1033C13.8155 15.1033 12.8481 14.096 12.8481 12.8533V9.64155Z" fill="#28303F"/>
</g>
<path d="M14.25 1.89663C14.25 1.48242 14.5858 1.14663 15 1.14663H21C21.2599 1.14663 21.5013 1.28122 21.638 1.50233C21.7746 1.72344 21.7871 1.99955 21.6708 2.23204L20.8385 3.89663L21.6708 5.56122C21.7871 5.79371 21.7746 6.06982 21.638 6.29093C21.5013 6.51204 21.2599 6.64663 21 6.64663H15.75V13.1319C15.75 13.5461 15.4142 13.8819 15 13.8819C14.5858 13.8819 14.25 13.5461 14.25 13.1319V1.89663Z" fill="#28303F"/>
</svg>
