<svg width="24" height="24" viewBox="0 0 24 24" fill="none" xmlns="http://www.w3.org/2000/svg">
<path opacity="0.4" d="M10.5002 7.95068H5.65999C5.51866 7.95068 5.38474 7.88387 5.2949 7.76854L4.12642 6.26854C3.9826 6.08391 3.9826 5.81746 4.12642 5.63283L5.2949 4.13283C5.38474 4.0175 5.51866 3.95068 5.65999 3.95068H10.5002V7.95068Z" fill="#28303F"/>
<path opacity="0.4" d="M10.5001 15.9507H4.07776C3.94242 15.9507 3.81263 15.898 3.71693 15.8042L2.18608 14.3042C1.9868 14.109 1.9868 13.7924 2.18608 13.5971L3.71693 12.0971C3.81263 12.0034 3.94242 11.9507 4.07776 11.9507H10.5001V15.9507Z" fill="#28303F"/>
<path opacity="0.4" d="M13.4998 7.95068H19.9293C20.0647 7.95068 20.1947 8.00336 20.2905 8.09713L21.823 9.59713C22.0225 9.79239 22.0225 10.109 21.823 10.3042L20.2905 11.8042C20.1947 11.898 20.0647 11.9507 19.9293 11.9507H13.4998V7.95068Z" fill="#28303F"/>
<path d="M10.5 3C10.5 2.44772 10.9477 2 11.5 2H12.5C13.0523 2 13.5 2.44772 13.5 3V21C13.5 21.5523 13.0523 22 12.5 22H11.5C10.9477 22 10.5 21.5523 10.5 21V3Z" fill="#28303F"/>
</svg>
