<svg width="24" height="24" viewBox="0 0 24 24" fill="none" xmlns="http://www.w3.org/2000/svg">
<ellipse opacity="0.4" cx="10" cy="17" rx="7" ry="4" fill="#28303F"/>
<circle cx="10" cy="7" r="4" fill="#28303F"/>
<path fill-rule="evenodd" clip-rule="evenodd" d="M16.5748 8.57468C16.8555 8.29395 17.3107 8.29395 17.5914 8.57468L19.0001 9.98333L20.4087 8.57468C20.6894 8.29395 21.1446 8.29395 21.4253 8.57468C21.7061 8.85541 21.7061 9.31057 21.4253 9.5913L20.0167 10.9999L21.4253 12.4086C21.7061 12.6893 21.7061 13.1445 21.4253 13.4252C21.1446 13.7059 20.6894 13.7059 20.4087 13.4252L19.0001 12.0166L17.5914 13.4252C17.3107 13.7059 16.8555 13.7059 16.5748 13.4252C16.2941 13.1445 16.2941 12.6893 16.5748 12.4086L17.9834 10.9999L16.5748 9.5913C16.2941 9.31057 16.2941 8.85541 16.5748 8.57468Z" fill="#28303F"/>
</svg>
