<svg width="24" height="24" viewBox="0 0 24 24" fill="none" xmlns="http://www.w3.org/2000/svg">
<path d="M14.411 6.34017V4.40547C14.411 3.07393 13.3316 1.99451 12 1.99451C10.6685 1.99451 9.58908 3.07393 9.58908 4.40547V6.34017C9.58908 7.05049 9.21232 7.70751 8.59928 8.06629L3.70925 10.9281C2.82894 11.4433 3.19436 12.7912 4.21435 12.7912H8.73837C9.29065 12.7912 9.73837 13.2389 9.73837 13.7912V16.2677C9.73837 16.9283 9.52034 17.5704 9.11811 18.0944L7.34325 20.4066C7.01725 20.8313 7.0863 21.4379 7.49939 21.7785C7.77988 22.0097 8.16425 22.0693 8.50163 21.934L11.2384 20.8112C11.7244 20.6119 12.2693 20.6117 12.7554 20.8107L15.4984 21.934C15.8358 22.0693 16.2202 22.0097 16.5007 21.7785C16.9138 21.4379 16.9828 20.8313 16.6568 20.4066L14.882 18.0944C14.4797 17.5704 14.2617 16.9283 14.2617 16.2677V13.7912C14.2617 13.2389 14.7094 12.7912 15.2617 12.7912H19.7857C20.8057 12.7912 21.1711 11.4433 20.2908 10.9281L15.4008 8.06629C14.7878 7.70751 14.411 7.05049 14.411 6.34017Z" fill="#28303F"/>
</svg>
