<svg width="24" height="24" viewBox="0 0 24 24" fill="none" xmlns="http://www.w3.org/2000/svg">
<path fill-rule="evenodd" clip-rule="evenodd" d="M13.9448 4.17828C14.2377 3.88539 14.2377 3.41051 13.9448 3.11762C13.6519 2.82473 13.177 2.82473 12.8842 3.11762L12.0003 4.0015L11.1164 3.11762C10.8235 2.82473 10.3486 2.82473 10.0557 3.11762C9.76284 3.41052 9.76284 3.88539 10.0557 4.17828L10.9396 5.06216L10.0557 5.94605C9.76284 6.23894 9.76284 6.71381 10.0557 7.00671C10.3486 7.2996 10.8235 7.2996 11.1164 7.00671L12.0003 6.12282L12.8842 7.00671C13.177 7.2996 13.6519 7.2996 13.9448 7.00671C14.2377 6.71382 14.2377 6.23894 13.9448 5.94605L13.0609 5.06216L13.9448 4.17828ZM4.01575 6.08557L11.9759 10.0778L10.0313 13.0648L2.02881 9.04239L4.01575 6.08557ZM11.9759 10.0778L19.991 6.11169L22.0172 9.1L13.9979 13.0648L11.9759 10.0778ZM4.00012 11.7393V16.8261C4.00012 17.5836 4.42813 18.2762 5.10569 18.615L11.1057 21.615C11.6687 21.8965 12.3315 21.8965 12.8945 21.615L18.8946 18.615C19.5721 18.2762 20.0001 17.5836 20.0001 16.8261V11.7393L14.6709 14.4039C13.9943 14.7422 13.1717 14.5237 12.7521 13.8943L12.0001 12.7664L11.2482 13.8943C10.8286 14.5237 10.0059 14.7422 9.32931 14.4039L4.00012 11.7393Z" fill="#28303F"/>
</svg>
