<svg width="24" height="24" viewBox="0 0 24 24" fill="none" xmlns="http://www.w3.org/2000/svg">
<path fill-rule="evenodd" clip-rule="evenodd" d="M12.7535 6.47231V4.68513L13.3817 5.25611C13.6943 5.54029 14.1738 5.50953 14.4492 5.18764C14.7196 4.87149 14.6919 4.39222 14.3868 4.11085L12.3323 2.2159C12.1417 2.0401 11.8517 2.04037 11.6614 2.21653L9.61013 4.11564C9.30893 4.3945 9.28191 4.86841 9.54939 5.1811C9.82609 5.50457 10.3098 5.53044 10.6181 5.23826L11.2726 4.61791V6.47231C11.2726 6.89004 11.6041 7.22868 12.0131 7.22868C12.422 7.22868 12.7535 6.89004 12.7535 6.47231ZM4.01575 6.08557L11.9759 10.0778L10.0313 13.0648L2.02881 9.04239L4.01575 6.08557ZM11.9759 10.0778L19.991 6.11169L22.0172 9.1L13.9979 13.0648L11.9759 10.0778ZM4.00012 11.7393V16.9348C4.00012 17.6878 4.42306 18.377 5.09443 18.718L11.0944 21.7654C11.6636 22.0545 12.3366 22.0545 12.9058 21.7654L18.9058 18.718C19.5772 18.377 20.0001 17.6878 20.0001 16.9348V11.7393L14.6709 14.446C13.9943 14.7897 13.1717 14.5677 12.7521 13.9283L12.0001 12.7826L11.2482 13.9283C10.8286 14.5677 10.0059 14.7897 9.32931 14.446L4.00012 11.7393Z" fill="#28303F"/>
</svg>
