<svg width="24" height="24" viewBox="0 0 24 24" fill="none" xmlns="http://www.w3.org/2000/svg">
<path fill-rule="evenodd" clip-rule="evenodd" d="M11.0001 2.81226C10.3098 2.81226 9.75012 3.3719 9.75012 4.06226C9.75012 4.75261 10.3098 5.31226 11.0001 5.31226C11.6905 5.31226 12.2501 4.75261 12.2501 4.06226C12.2501 3.3719 11.6905 2.81226 11.0001 2.81226ZM8.25012 4.06226C8.25012 2.54347 9.48134 1.31226 11.0001 1.31226C12.5189 1.31226 13.7501 2.54347 13.7501 4.06226C13.7501 4.54912 13.6236 5.00644 13.4016 5.40312L14.0305 6.03193C14.3233 6.32482 14.3233 6.79969 14.0305 7.09259C13.7376 7.38548 13.2627 7.38548 12.9698 7.09259L12.341 6.46378C11.9443 6.68573 11.487 6.81226 11.0001 6.81226C9.48134 6.81226 8.25012 5.58104 8.25012 4.06226ZM4.00012 11.7394V16.8262C4.00012 17.5838 4.42813 18.2763 5.10569 18.6151L11.1057 21.6151C11.6687 21.8966 12.3315 21.8966 12.8945 21.6151L18.8946 18.6151C19.5721 18.2763 20.0001 17.5838 20.0001 16.8262V11.7394L14.6709 14.404C13.9943 14.7423 13.1717 14.5238 12.7521 13.8944L12.0001 12.7665L11.2482 13.8944C10.8286 14.5238 10.0059 14.7423 9.32931 14.404L4.00012 11.7394ZM11.9759 10.0779L4.01575 6.08569L2.02881 9.04251L10.0313 13.0649L11.9759 10.0779ZM11.9759 10.0779L13.9979 13.0649L22.0172 9.10013L19.991 6.11182L11.9759 10.0779Z" fill="#28303F"/>
</svg>
