<svg width="24" height="24" viewBox="0 0 24 24" fill="none" xmlns="http://www.w3.org/2000/svg">
<path fill-rule="evenodd" clip-rule="evenodd" d="M12.0001 2.31213C12.4143 2.31213 12.7501 2.64792 12.7501 3.06213V4.31213H14.0001C14.4143 4.31213 14.7501 4.64792 14.7501 5.06213C14.7501 5.47635 14.4143 5.81213 14.0001 5.81213H12.7501V7.06213C12.7501 7.47635 12.4143 7.81213 12.0001 7.81213C11.5859 7.81213 11.2501 7.47635 11.2501 7.06213V5.81213H10.0001C9.58591 5.81213 9.25012 5.47635 9.25012 5.06213C9.25012 4.64792 9.58591 4.31213 10.0001 4.31213H11.2501V3.06213C11.2501 2.64792 11.5859 2.31213 12.0001 2.31213ZM4.00012 11.7393V16.8261C4.00012 17.5836 4.42813 18.2762 5.10569 18.615L11.1057 21.615C11.6687 21.8965 12.3315 21.8965 12.8945 21.615L18.8946 18.615C19.5721 18.2762 20.0001 17.5836 20.0001 16.8261V11.7393L14.6709 14.4039C13.9943 14.7422 13.1717 14.5237 12.7521 13.8943L12.0001 12.7664L11.2482 13.8943C10.8286 14.5237 10.0059 14.7422 9.32931 14.4039L4.00012 11.7393ZM11.9759 10.0778L4.01575 6.08557L2.02881 9.04239L10.0313 13.0648L11.9759 10.0778ZM11.9759 10.0778L13.9979 13.0648L22.0172 9.1L19.991 6.11169L11.9759 10.0778Z" fill="#28303F"/>
</svg>
