<svg width="24" height="24" viewBox="0 0 24 24" fill="none" xmlns="http://www.w3.org/2000/svg">
<path fill-rule="evenodd" clip-rule="evenodd" d="M15.5874 3.66967C15.8602 3.35794 15.8286 2.88412 15.5169 2.61136C15.2052 2.3386 14.7313 2.37019 14.4586 2.68191L11.5887 5.96181C11.5006 6.06249 11.3488 6.07597 11.2444 5.9924L9.49153 4.59014C9.16809 4.33138 8.69612 4.38382 8.43736 4.70727C8.1786 5.03072 8.23104 5.50269 8.55449 5.76144L10.3073 7.1637C11.0386 7.74873 12.1008 7.65435 12.7175 6.94956L15.5874 3.66967ZM4.01575 6.02351L11.9759 10.0158L10.0313 13.0027L2.02881 8.98032L4.01575 6.02351ZM11.9759 10.0158L19.991 6.04963L22.0172 9.03794L13.9979 13.0027L11.9759 10.0158ZM4.02301 11.6772V16.764C4.02301 17.5216 4.45101 18.2141 5.12858 18.5529L11.1286 21.5529C11.6916 21.8344 12.3544 21.8344 12.9174 21.5529L18.9174 18.5529C19.595 18.2141 20.023 17.5216 20.023 16.764V11.6772L14.6938 14.3418C14.0172 14.6801 13.1946 14.4616 12.7749 13.8322L12.023 12.7043L11.2711 13.8322C10.8515 14.4616 10.0288 14.6801 9.3522 14.3418L4.02301 11.6772Z" fill="#28303F"/>
</svg>
