<svg width="24" height="24" viewBox="0 0 24 24" fill="none" xmlns="http://www.w3.org/2000/svg">
<path fill-rule="evenodd" clip-rule="evenodd" d="M10.803 4.13625C12.5687 2.3706 15.4313 2.3706 17.197 4.13625C18.9627 5.9019 18.9627 8.76459 17.197 10.5302L11.8637 15.8636C10.8344 16.8929 9.16561 16.8929 8.13633 15.8636C7.10706 14.8343 7.10706 13.1655 8.13633 12.1363L13.4697 6.80292C13.7626 6.51003 14.2374 6.51003 14.5303 6.80292C14.8232 7.09581 14.8232 7.57069 14.5303 7.86358L9.19699 13.1969C8.75351 13.6404 8.75351 14.3594 9.19699 14.8029C9.64048 15.2464 10.3595 15.2464 10.803 14.8029L16.1363 9.46959C17.3162 8.28972 17.3162 6.37678 16.1363 5.19691C14.9565 4.01704 13.0435 4.01705 11.8637 5.19691L6.53032 10.5303C4.61408 12.4465 4.61408 15.5533 6.53033 17.4696C8.44657 19.3858 11.5534 19.3858 13.4697 17.4696L18.803 12.1363C19.0959 11.8434 19.5708 11.8434 19.8637 12.1363C20.1566 12.4291 20.1566 12.904 19.8637 13.1969L14.5303 18.5302C12.0283 21.0323 7.9717 21.0323 5.46967 18.5302C2.96763 16.0282 2.96763 11.9716 5.46966 9.46959L10.803 4.13625Z" fill="#28303F"/>
</svg>
