<svg width="24" height="24" viewBox="0 0 24 24" fill="none" xmlns="http://www.w3.org/2000/svg">
<path fill-rule="evenodd" clip-rule="evenodd" d="M6.09133 1.29283C6.48187 1.1548 6.91036 1.35949 7.0484 1.75003C7.76947 3.79012 9.71516 5.24996 11.9999 5.24996C12.057 5.24996 12.1139 5.25067 12.1706 5.25208C12.2274 5.25067 12.2843 5.24996 12.3414 5.24996C14.6261 5.24996 16.5718 3.79012 17.2928 1.75003C17.4309 1.35949 17.8594 1.1548 18.2499 1.29283C18.6404 1.43087 18.8451 1.85936 18.7071 2.24989C18.1102 3.93856 16.8602 5.31945 15.26 6.08806C16.5402 6.79554 17.5662 7.90676 18.1661 9.24997H6.1751C6.77505 7.90676 7.801 6.79554 9.08119 6.08806C7.48098 5.31945 6.231 3.93856 5.63414 2.24989C5.4961 1.85936 5.7008 1.43087 6.09133 1.29283ZM5.70687 10.75H18.6344C18.7102 11.155 18.7499 11.5729 18.7499 12C18.7499 12.4271 18.7102 12.8449 18.6344 13.25H5.70688C5.63103 12.8449 5.59136 12.4271 5.59136 12C5.59136 11.5729 5.63103 11.155 5.70687 10.75ZM6.17511 14.75C6.77506 16.0932 7.801 17.2044 9.08119 17.9119C7.48098 18.6805 6.231 20.0614 5.63414 21.75C5.4961 22.1406 5.7008 22.5691 6.09133 22.7071C6.48187 22.8451 6.91036 22.6404 7.0484 22.2499C7.76947 20.2098 9.71516 18.75 11.9999 18.75C12.057 18.75 12.1139 18.7493 12.1706 18.7478C12.2274 18.7493 12.2843 18.75 12.3414 18.75C14.6261 18.75 16.5718 20.2098 17.2928 22.2499C17.4309 22.6404 17.8594 22.8451 18.2499 22.7071C18.6404 22.5691 18.8451 22.1406 18.7071 21.75C18.1102 20.0614 16.8602 18.6805 15.26 17.9119C16.5402 17.2044 17.5662 16.0932 18.1661 14.75H6.17511Z" fill="#28303F"/>
</svg>
