<svg width="24" height="24" viewBox="0 0 24 24" fill="none" xmlns="http://www.w3.org/2000/svg">
<path d="M6.80273 12.2893L9.00273 13.9393C10.0694 14.7393 11.5361 14.7393 12.6027 13.9393L14.8027 12.2893M12.4876 7.28931H5.80273C4.14588 7.28931 2.80273 8.63245 2.80273 10.2893V18.2893C2.80273 19.9462 4.14588 21.2893 5.80273 21.2893H15.8027C17.4596 21.2893 18.8027 19.9462 18.8027 18.2893V10.2893C18.8027 10.0495 18.8027 9.85516 18.8027 9.85516" stroke="#28303F" stroke-width="1.5" stroke-linecap="round" stroke-linejoin="round"/>
<path d="M17.2092 5.00848C17.2092 4.59427 16.8734 4.25848 16.4592 4.25848C16.045 4.25848 15.7092 4.59427 15.7092 5.00848H17.2092ZM16.4592 6.50848H15.7092C15.7092 6.9227 16.045 7.25848 16.4592 7.25848V6.50848ZM17.9592 7.25848C18.3734 7.25848 18.7092 6.9227 18.7092 6.50848C18.7092 6.09427 18.3734 5.75848 17.9592 5.75848V7.25848ZM19.7092 6.50848C19.7092 8.30341 18.2542 9.75848 16.4592 9.75848V11.2585C19.0826 11.2585 21.2092 9.13184 21.2092 6.50848H19.7092ZM16.4592 9.75848C14.6643 9.75848 13.2092 8.30341 13.2092 6.50848H11.7092C11.7092 9.13184 13.8359 11.2585 16.4592 11.2585V9.75848ZM13.2092 6.50848C13.2092 4.71356 14.6643 3.25848 16.4592 3.25848V1.75848C13.8359 1.75848 11.7092 3.88513 11.7092 6.50848H13.2092ZM16.4592 3.25848C18.2542 3.25848 19.7092 4.71356 19.7092 6.50848H21.2092C21.2092 3.88513 19.0826 1.75848 16.4592 1.75848V3.25848ZM15.7092 5.00848V6.50848H17.2092V5.00848H15.7092ZM16.4592 7.25848H17.9592V5.75848H16.4592V7.25848Z" fill="#28303F"/>
</svg>
