<svg width="24" height="24" viewBox="0 0 24 24" fill="none" xmlns="http://www.w3.org/2000/svg">
<path fill-rule="evenodd" clip-rule="evenodd" d="M11.0017 3.125C9.75908 3.125 8.75172 4.13236 8.75172 5.375V6.375C8.75172 6.78921 8.41593 7.125 8.00172 7.125C7.58751 7.125 7.25172 6.78921 7.25172 6.375V5.375C7.25172 3.30393 8.93065 1.625 11.0017 1.625H13.0017C15.0728 1.625 16.7517 3.30393 16.7517 5.375V6.375C16.7517 6.78921 16.4159 7.125 16.0017 7.125C15.5875 7.125 15.2517 6.78921 15.2517 6.375V5.375C15.2517 4.13236 14.2444 3.125 13.0017 3.125H11.0017Z" fill="#28303F"/>
<path d="M18.0017 6.375H6.0017C3.86951 6.375 2.12697 8.04327 2.00816 10.1457C1.99995 10.2911 2.06484 10.4287 2.18355 10.513C2.62667 10.8274 3.90149 11.6161 6.24606 12.2114C6.40558 12.2519 6.56402 12.1517 6.63452 12.0029C6.87503 11.4955 7.39189 11.1447 7.99071 11.1447C8.81914 11.1447 9.49071 11.8162 9.49071 12.6447C9.49071 12.7216 9.54876 12.7863 9.62536 12.7941C9.91295 12.8233 10.2097 12.8489 10.5157 12.8705L13.4948 12.9322C13.7772 12.9226 14.0516 12.9085 14.3183 12.8902C14.4226 12.8831 14.503 12.7961 14.503 12.6916V12.6447C14.503 11.8162 15.1746 11.1447 16.003 11.1447C16.6429 11.1447 17.1892 11.5453 17.4047 12.1094C17.4675 12.2737 17.6346 12.3907 17.805 12.3469C20.1606 11.7418 21.4258 10.85 21.8435 10.5118C21.948 10.4272 22.0032 10.2991 21.9963 10.1648C21.8869 8.05335 20.1403 6.375 18.0017 6.375Z" fill="#28303F"/>
<path d="M9.47337 14.2631C9.49175 14.144 9.59655 14.0503 9.71626 14.0647C11.2131 14.2443 12.7698 14.3062 14.3165 14.2087C14.4246 14.2019 14.5177 14.2819 14.5424 14.3874C14.6974 15.0507 15.2925 15.5447 16.003 15.5447C16.8315 15.5447 17.503 14.8731 17.503 14.0447V13.9999C17.503 13.8597 17.6002 13.7385 17.7365 13.7057C19.0125 13.3988 20.2429 12.9525 21.3841 12.341C21.6591 12.1936 22.0017 12.3876 22.0017 12.6996V18.375C22.0017 20.5841 20.2108 22.375 18.0017 22.375H6.0017C3.79256 22.375 2.0017 20.5841 2.0017 18.375L1.99818 12.5443C1.998 12.2473 2.31079 12.0525 2.5819 12.1738C3.64187 12.6484 4.89251 13.0799 6.26168 13.4253C6.39588 13.4592 6.49071 13.5795 6.49071 13.7179V14.0447C6.49071 14.8731 7.16228 15.5447 7.99071 15.5447C8.73742 15.5447 9.36282 14.9798 9.47337 14.2631Z" fill="#28303F"/>
<rect x="7.24073" y="11.9476" width="1.5" height="2.79403" rx="0.75" fill="#28303F"/>
<rect x="15.2531" y="11.9476" width="1.5" height="2.79403" rx="0.75" fill="#28303F"/>
</svg>
