<svg width="24" height="24" viewBox="0 0 24 24" fill="none" xmlns="http://www.w3.org/2000/svg">
<path fill-rule="evenodd" clip-rule="evenodd" d="M11 3.125C9.75738 3.125 8.75002 4.13236 8.75002 5.375V6.375C8.75002 6.78921 8.41424 7.125 8.00002 7.125C7.58581 7.125 7.25002 6.78921 7.25002 6.375V5.375C7.25002 3.30393 8.92896 1.625 11 1.625H13C15.0711 1.625 16.75 3.30393 16.75 5.375V6.375C16.75 6.78921 16.4142 7.125 16 7.125C15.5858 7.125 15.25 6.78921 15.25 6.375V5.375C15.25 4.13236 14.2427 3.125 13 3.125H11Z" fill="#28303F"/>
<path d="M5.99993 6.375H17.9999C20.2091 6.375 21.9999 8.16586 21.9999 10.375C21.9999 10.375 19.6479 12.6767 13.6847 12.925C13.5788 12.9294 13.4875 12.8491 13.4647 12.7456C13.3163 12.0733 12.7169 11.5703 11.9999 11.5703C11.3043 11.5703 10.7193 12.0438 10.5496 12.6861C10.5226 12.7882 10.4287 12.8645 10.3234 12.8564C4.34822 12.3973 1.99993 10.375 1.99993 10.375C1.99993 8.16586 3.79079 6.375 5.99993 6.375Z" fill="#28303F"/>
<path d="M10.4999 14.2583C10.4999 14.1532 10.4172 14.0661 10.3125 14.0581C5.62304 13.7023 3.00081 12.4687 1.99993 11.8876V18.375C1.99993 20.5842 3.79079 22.375 5.99993 22.375H17.9999C20.2091 22.375 21.9999 20.5842 21.9999 18.375V11.9294C20.9969 12.5867 18.3688 13.9605 13.6941 14.1644C13.5866 14.1691 13.4999 14.2574 13.4999 14.3651V14.4703C13.4999 15.2987 12.8284 15.9703 11.9999 15.9703C11.1715 15.9703 10.4999 15.2987 10.4999 14.4703V14.2583Z" fill="#28303F"/>
<rect x="11.25" y="12.375" width="1.5" height="2.79403" rx="0.75" fill="#28303F"/>
</svg>
