<svg width="24" height="24" viewBox="0 0 24 24" fill="none" xmlns="http://www.w3.org/2000/svg">
<path opacity="0.4" fill-rule="evenodd" clip-rule="evenodd" d="M12.6503 5.74988L12.1704 9.10981L10.8445 7.78398L11.1351 5.74988H8.81055L7.31055 4.24988H11.9989H17.9999C18.4141 4.24988 18.7499 4.58566 18.7499 4.99988C18.7499 5.41409 18.4141 5.74988 17.9999 5.74988H12.6503Z" fill="#28303F"/>
<path fill-rule="evenodd" clip-rule="evenodd" d="M5.53033 4.46955C5.23744 4.17665 4.76256 4.17665 4.46967 4.46955C4.17678 4.76244 4.17678 5.23731 4.46967 5.53021L10.3295 11.39L9.25751 18.8938C9.19893 19.3038 9.48386 19.6837 9.89391 19.7423C10.304 19.8009 10.6839 19.516 10.7424 19.1059L11.6553 12.7158L18.4697 19.5302C18.7626 19.8231 19.2374 19.8231 19.5303 19.5302C19.8232 19.2373 19.8232 18.7624 19.5303 18.4695L5.53033 4.46955Z" fill="#28303F"/>
</svg>
