<svg width="24" height="24" viewBox="0 0 24 24" fill="none" xmlns="http://www.w3.org/2000/svg">
<path fill-rule="evenodd" clip-rule="evenodd" d="M14.6517 9.34869C14.9446 9.64158 14.9446 10.1165 14.6517 10.4093L10.409 14.652C10.1161 14.9449 9.64126 14.9449 9.34837 14.652C9.05547 14.3591 9.05547 13.8842 9.34837 13.5913L13.591 9.34869C13.8839 9.0558 14.3588 9.0558 14.6517 9.34869Z" fill="#28303F"/>
<path opacity="0.4" fill-rule="evenodd" clip-rule="evenodd" d="M18.1363 5.8638C16.5882 4.31573 14.0783 4.31573 12.5302 5.8638L10.8636 7.53047C10.5707 7.82337 10.0958 7.82337 9.80289 7.53047C9.51 7.23758 9.51 6.76271 9.80289 6.46981L11.4696 4.80314C13.6034 2.66928 17.0631 2.66928 19.1969 4.80314C21.3308 6.93699 21.3308 10.3967 19.1969 12.5305L17.5303 14.1972C17.2374 14.4901 16.7625 14.4901 16.4696 14.1972C16.1767 13.9043 16.1767 13.4294 16.4696 13.1365L18.1363 11.4698C19.6843 9.92178 19.6843 7.41186 18.1363 5.8638Z" fill="#28303F"/>
<path opacity="0.4" fill-rule="evenodd" clip-rule="evenodd" d="M5.8636 18.1362C7.41167 19.6843 9.92158 19.6843 11.4697 18.1362L13.1363 16.4695C13.4292 16.1766 13.9041 16.1766 14.197 16.4695C14.4899 16.7624 14.4899 17.2373 14.197 17.5302L12.5303 19.1969C10.3965 21.3307 6.9368 21.3307 4.80294 19.1969C2.66909 17.063 2.66909 13.6033 4.80294 11.4695L6.46962 9.80282C6.76251 9.50993 7.23739 9.50993 7.53028 9.80282C7.82317 10.0957 7.82317 10.5706 7.53028 10.8635L5.8636 12.5302C4.31554 14.0782 4.31554 16.5881 5.8636 18.1362Z" fill="#28303F"/>
</svg>
