<svg width="24" height="24" viewBox="0 0 24 24" fill="none" xmlns="http://www.w3.org/2000/svg">
<path fill-rule="evenodd" clip-rule="evenodd" d="M17 21.0834C17.4142 21.0834 17.75 20.7476 17.75 20.3334L17.75 17.75L20.3334 17.75C20.7476 17.75 21.0834 17.4142 21.0834 17C21.0834 16.5858 20.7476 16.25 20.3334 16.25L17 16.25C16.5858 16.25 16.25 16.5858 16.25 17L16.25 20.3334C16.25 20.7476 16.5858 21.0834 17 21.0834Z" fill="#28303F"/>
<path fill-rule="evenodd" clip-rule="evenodd" d="M2.91662 7C2.91662 6.58579 3.2524 6.25 3.66662 6.25L6.24997 6.25L6.24997 3.66665C6.24997 3.25243 6.58576 2.91665 6.99997 2.91665C7.41418 2.91665 7.74997 3.25243 7.74997 3.66665L7.74997 7C7.74997 7.41421 7.41418 7.75 6.99997 7.75L3.66662 7.75C3.2524 7.75 2.91662 7.41421 2.91662 7Z" fill="#28303F"/>
<path fill-rule="evenodd" clip-rule="evenodd" d="M15.0303 8.96978C15.3232 9.26268 15.3232 9.73755 15.0303 10.0304L10.0303 15.0305C9.73741 15.3234 9.26253 15.3234 8.96964 15.0305C8.67675 14.7376 8.67675 14.2627 8.96964 13.9698L13.9697 8.96978C14.2626 8.67689 14.7374 8.67689 15.0303 8.96978Z" fill="#28303F"/>
<path opacity="0.4" fill-rule="evenodd" clip-rule="evenodd" d="M18.1364 5.8638C16.5883 4.31573 14.0784 4.31573 12.5303 5.8638L10.8637 7.53047C10.5708 7.82337 10.0959 7.82337 9.80301 7.53047C9.51012 7.23758 9.51012 6.76271 9.80301 6.46981L11.4697 4.80314C13.6035 2.66929 17.0632 2.66928 19.1971 4.80314C21.3309 6.93699 21.3309 10.3967 19.1971 12.5305L17.5304 14.1972C17.2375 14.4901 16.7626 14.4901 16.4697 14.1972C16.1768 13.9043 16.1768 13.4294 16.4697 13.1365L18.1364 11.4698C19.6845 9.92178 19.6845 7.41186 18.1364 5.8638Z" fill="#28303F"/>
<path opacity="0.4" fill-rule="evenodd" clip-rule="evenodd" d="M5.8636 18.1362C7.41167 19.6843 9.92158 19.6843 11.4697 18.1362L13.1363 16.4695C13.4292 16.1766 13.9041 16.1766 14.197 16.4695C14.4899 16.7624 14.4899 17.2373 14.197 17.5302L12.5303 19.1969C10.3965 21.3307 6.9368 21.3307 4.80294 19.1969C2.66909 17.063 2.66909 13.6033 4.80294 11.4695L6.46962 9.80282C6.76251 9.50993 7.23739 9.50993 7.53028 9.80282C7.82317 10.0957 7.82317 10.5706 7.53028 10.8635L5.8636 12.5302C4.31554 14.0782 4.31554 16.5881 5.8636 18.1362Z" fill="#28303F"/>
</svg>
