<svg width="24" height="24" viewBox="0 0 24 24" fill="none" xmlns="http://www.w3.org/2000/svg">
<path d="M14.9798 2.24689L14.7947 2.97371L14.9798 2.24689ZM20.4185 13L19.7233 13.2814C19.8379 13.5647 20.1129 13.75 20.4185 13.75C20.724 13.75 20.999 13.5647 21.1137 13.2814L20.4185 13ZM12.25 17C12.25 19.3472 10.3472 21.25 8 21.25V22.75C11.1756 22.75 13.75 20.1757 13.75 17H12.25ZM8 21.25C5.65279 21.25 3.75 19.3472 3.75 17H2.25C2.25 20.1757 4.82436 22.75 8 22.75V21.25ZM3.75 17C3.75 14.6528 5.65279 12.75 8 12.75V11.25C4.82436 11.25 2.25 13.8244 2.25 17H3.75ZM8 12.75C10.3472 12.75 12.25 14.6528 12.25 17H13.75C13.75 13.8244 11.1756 11.25 8 11.25V12.75ZM14.7947 2.97371C17.9311 3.77218 20.25 6.61625 20.25 10H21.75C21.75 5.9139 18.9498 2.48367 15.1648 1.52008L14.7947 2.97371ZM13 8.75004C16.0414 8.75004 18.6472 10.6231 19.7233 13.2814L21.1137 12.7186C19.8162 9.51332 16.6733 7.25004 13 7.25004V8.75004ZM20.25 10C20.25 10.9629 20.0627 11.8801 19.7233 12.7186L21.1137 13.2814C21.5243 12.2671 21.75 11.159 21.75 10H20.25ZM12.25 4.00004V8.00004H13.75V4.00004H12.25ZM15.1648 1.52008C13.4891 1.09347 12.25 2.55091 12.25 4.00004H13.75C13.75 3.24003 14.3296 2.8553 14.7947 2.97371L15.1648 1.52008ZM12.25 8.00004V17H13.75V8.00004H12.25Z" fill="#28303F"/>
</svg>
