<svg width="24" height="24" viewBox="0 0 24 24" fill="none" xmlns="http://www.w3.org/2000/svg">
<path d="M17 10C16.4547 10 15.9299 10.0873 15.4386 10.2486C14.7677 8.68071 13.5408 7.40734 12.0059 6.67641C12.1186 4.32973 13.8491 2.40726 16.1064 2C16.0368 2.2955 16 2.60364 16 2.92038C16 5.12952 17.7909 6.92038 20 6.92038C20.7176 6.92038 21.391 6.73142 21.9733 6.40055C21.991 6.57142 22 6.74484 22 6.92038C22 8.57998 21.1914 10.0507 19.9468 10.9602C19.1204 10.3564 18.1018 10 17 10Z" fill="#28303F"/>
<path opacity="0.4" d="M2 13C2 16.866 5.13401 20 9 20H17C19.7614 20 22 17.7614 22 15C22 13.3404 21.1914 11.8696 19.9468 10.9602C19.1204 10.3564 18.1018 10 17 10C16.4547 10 15.9299 10.0873 15.4386 10.2486C14.7677 8.68071 13.5408 7.40735 12.0058 6.67641C11.0951 6.24273 10.0759 6 9 6C5.13401 6 2 9.13401 2 13Z" fill="#28303F"/>
<path fill-rule="evenodd" clip-rule="evenodd" d="M12.2786 16.3038C12.6632 16.4577 12.8502 16.8942 12.6964 17.2787L10.6964 22.2787C10.5426 22.6633 10.1061 22.8504 9.7215 22.6966C9.33691 22.5427 9.14985 22.1062 9.30368 21.7217L11.3037 16.7217C11.4575 16.3371 11.894 16.15 12.2786 16.3038ZM8.33545 16.3294C8.70594 16.5146 8.8561 16.9651 8.67086 17.3356L7.67086 19.3356C7.48562 19.7061 7.03512 19.8563 6.66463 19.671C6.29415 19.4858 6.14398 19.0353 6.32922 18.6648L7.32922 16.6648C7.51446 16.2943 7.96497 16.1441 8.33545 16.3294ZM16.3355 16.3294C16.7059 16.5146 16.8561 16.9651 16.6709 17.3356L15.6709 19.3356C15.4856 19.7061 15.0351 19.8563 14.6646 19.671C14.2941 19.4858 14.144 19.0353 14.3292 18.6648L15.3292 16.6648C15.5145 16.2943 15.965 16.1441 16.3355 16.3294Z" fill="#28303F"/>
</svg>
