<svg width="24" height="24" viewBox="0 0 24 24" fill="none" xmlns="http://www.w3.org/2000/svg">
<path opacity="0.4" d="M2 11C2 14.866 5.13401 18 9 18H17C19.7614 18 22 15.7614 22 13C22 11.8744 21.6281 10.8357 21.0004 10C20.0882 8.78555 18.6358 8 17 8C16.4547 8 15.9299 8.08728 15.4386 8.24864C14.8346 6.83717 13.7801 5.6644 12.4559 4.91117C11.4363 4.33124 10.2568 4 9 4C5.13401 4 2 7.13401 2 11Z" fill="#28303F"/>
<path fill-rule="evenodd" clip-rule="evenodd" d="M21.0004 10C21.6281 9.16434 22 8.12561 22 7C22 4.23858 19.7615 2 17 2C14.9843 2 13.2471 3.19285 12.4559 4.91117C13.7802 5.6644 14.8347 6.83717 15.4386 8.24864C15.9299 8.08728 16.4548 8 17 8C18.6359 8 20.0882 8.78555 21.0004 10Z" fill="#28303F"/>
<path fill-rule="evenodd" clip-rule="evenodd" d="M12.2786 16.3038C12.6632 16.4577 12.8502 16.8942 12.6964 17.2787L10.6964 22.2787C10.5426 22.6633 10.1061 22.8504 9.7215 22.6966C9.33691 22.5427 9.14985 22.1062 9.30368 21.7217L11.3037 16.7217C11.4575 16.3371 11.894 16.15 12.2786 16.3038ZM8.33545 16.3294C8.70594 16.5146 8.8561 16.9651 8.67086 17.3356L7.67086 19.3356C7.48562 19.7061 7.03512 19.8563 6.66463 19.671C6.29415 19.4858 6.14398 19.0353 6.32922 18.6648L7.32922 16.6648C7.51446 16.2943 7.96497 16.1441 8.33545 16.3294ZM16.3355 16.3294C16.7059 16.5146 16.8561 16.9651 16.6709 17.3356L15.6709 19.3356C15.4856 19.7061 15.0351 19.8563 14.6646 19.671C14.2941 19.4858 14.144 19.0353 14.3292 18.6648L15.3292 16.6648C15.5145 16.2943 15.965 16.1441 16.3355 16.3294Z" fill="#28303F"/>
</svg>
