<svg width="24" height="24" viewBox="0 0 24 24" fill="none" xmlns="http://www.w3.org/2000/svg">
<path d="M17 10C16.4547 10 15.9298 10.0873 15.4385 10.2486C14.7393 8.61449 13.4362 7.30031 11.8097 6.58672C12.54 5.62272 13.6973 5 15 5C17.2091 5 19 6.79086 19 9C19 9.46419 18.9209 9.90991 18.7755 10.3244C18.2237 10.1148 17.6253 10 17 10Z" fill="#28303F"/>
<path fill-rule="evenodd" clip-rule="evenodd" d="M15 1.25C15.4142 1.25 15.75 1.58579 15.75 2V3C15.75 3.41421 15.4142 3.75 15 3.75C14.5858 3.75 14.25 3.41421 14.25 3V2C14.25 1.58579 14.5858 1.25 15 1.25Z" fill="#28303F"/>
<path fill-rule="evenodd" clip-rule="evenodd" d="M20.48 3.52008C20.7729 3.81297 20.7729 4.28784 20.48 4.58074L19.7729 5.28784C19.48 5.58074 19.0052 5.58074 18.7123 5.28784C18.4194 4.99495 18.4194 4.52008 18.7123 4.22718L19.4194 3.52008C19.7123 3.22718 20.1871 3.22718 20.48 3.52008Z" fill="#28303F"/>
<path fill-rule="evenodd" clip-rule="evenodd" d="M22.75 9C22.75 9.41421 22.4142 9.75 22 9.75L21 9.75C20.5858 9.75 20.25 9.41421 20.25 9C20.25 8.58579 20.5858 8.25 21 8.25L22 8.25C22.4142 8.25 22.75 8.58579 22.75 9Z" fill="#28303F"/>
<path opacity="0.4" d="M2 13C2 16.866 5.13401 20 9 20H17C19.7614 20 22 17.7614 22 15C22 12.8639 20.6604 11.0406 18.7755 10.3244C18.2238 10.1148 17.6253 10 17 10C16.4547 10 15.9299 10.0873 15.4386 10.2486C14.7393 8.61449 13.4362 7.30031 11.8097 6.58672C10.9497 6.2094 9.99931 6 9 6C5.13401 6 2 9.13401 2 13Z" fill="#28303F"/>
<path fill-rule="evenodd" clip-rule="evenodd" d="M12.2786 16.3038C12.6632 16.4577 12.8502 16.8942 12.6964 17.2787L10.6964 22.2787C10.5426 22.6633 10.1061 22.8504 9.7215 22.6966C9.33691 22.5427 9.14985 22.1062 9.30368 21.7217L11.3037 16.7217C11.4575 16.3371 11.894 16.15 12.2786 16.3038ZM8.33545 16.3294C8.70594 16.5146 8.8561 16.9651 8.67086 17.3356L7.67086 19.3356C7.48562 19.7061 7.03512 19.8563 6.66463 19.671C6.29415 19.4858 6.14398 19.0353 6.32922 18.6648L7.32922 16.6648C7.51446 16.2943 7.96497 16.1441 8.33545 16.3294ZM16.3355 16.3294C16.7059 16.5146 16.8561 16.9651 16.6709 17.3356L15.6709 19.3356C15.4856 19.7061 15.0351 19.8563 14.6646 19.671C14.2941 19.4858 14.144 19.0353 14.3292 18.6648L15.3292 16.6648C15.5145 16.2943 15.965 16.1441 16.3355 16.3294Z" fill="#28303F"/>
</svg>
