<svg width="24" height="24" viewBox="0 0 24 24" fill="none" xmlns="http://www.w3.org/2000/svg">
<path opacity="0.4" d="M2 10C2 13.866 5.13401 17 9 17H17C19.7614 17 22 14.7614 22 12C22 9.23858 19.7614 7 17 7C16.4547 7 15.9299 7.08728 15.4386 7.24864C14.3696 4.75042 11.8892 3 9 3C5.13401 3 2 6.13401 2 10Z" fill="#28303F"/>
<path fill-rule="evenodd" clip-rule="evenodd" d="M12.2786 15.3038C12.6632 15.4577 12.8502 15.8942 12.6964 16.2787L10.6964 21.2787C10.5426 21.6633 10.1061 21.8504 9.7215 21.6966C9.33691 21.5427 9.14985 21.1062 9.30368 20.7217L11.3037 15.7217C11.4575 15.3371 11.894 15.15 12.2786 15.3038ZM8.33545 15.3294C8.70594 15.5146 8.8561 15.9651 8.67086 16.3356L7.67086 18.3356C7.48562 18.7061 7.03512 18.8563 6.66463 18.671C6.29415 18.4858 6.14398 18.0353 6.32922 17.6648L7.32922 15.6648C7.51446 15.2943 7.96497 15.1441 8.33545 15.3294ZM16.3355 15.3294C16.7059 15.5146 16.8561 15.9651 16.6709 16.3356L15.6709 18.3356C15.4856 18.7061 15.0351 18.8563 14.6646 18.671C14.2941 18.4858 14.144 18.0353 14.3292 17.6648L15.3292 15.6648C15.5145 15.2943 15.965 15.1441 16.3355 15.3294Z" fill="#28303F"/>
</svg>
