<svg width="24" height="24" viewBox="0 0 24 24" fill="none" xmlns="http://www.w3.org/2000/svg">
<path opacity="0.4" fill-rule="evenodd" clip-rule="evenodd" d="M12.6782 5.25V18.75H11.1782V5.25H12.6782Z" fill="#28303F"/>
<path opacity="0.4" fill-rule="evenodd" clip-rule="evenodd" d="M6.45752 7.97538L18.1489 14.7254L17.3989 16.0244L5.70752 9.27441L6.45752 7.97538Z" fill="#28303F"/>
<path opacity="0.4" fill-rule="evenodd" clip-rule="evenodd" d="M18.1489 9.27462L6.45758 16.0246L5.70758 14.7256L17.3989 7.97559L18.1489 9.27462Z" fill="#28303F"/>
<path fill-rule="evenodd" clip-rule="evenodd" d="M9.39789 3.46967C9.69079 3.17678 10.1657 3.17678 10.4586 3.46967L11.0443 4.05546C11.5325 4.54361 12.324 4.54361 12.8121 4.05546L13.3979 3.46967C13.6908 3.17678 14.1657 3.17678 14.4586 3.46967C14.7514 3.76256 14.7514 4.23744 14.4586 4.53033L13.8728 5.11612C12.7988 6.19006 11.0576 6.19006 9.98368 5.11612L9.39789 4.53033C9.105 4.23744 9.105 3.76256 9.39789 3.46967Z" fill="#28303F"/>
<path fill-rule="evenodd" clip-rule="evenodd" d="M9.39789 20.5303C9.69079 20.8232 10.1657 20.8232 10.4586 20.5303L11.0443 19.9445C11.5325 19.4564 12.324 19.4564 12.8121 19.9445L13.3979 20.5303C13.6908 20.8232 14.1657 20.8232 14.4586 20.5303C14.7514 20.2374 14.7514 19.7626 14.4586 19.4697L13.8728 18.8839C12.7988 17.8099 11.0576 17.8099 9.98368 18.8839L9.39789 19.4697C9.105 19.7626 9.105 20.2374 9.39789 20.5303Z" fill="#28303F"/>
<path fill-rule="evenodd" clip-rule="evenodd" d="M3.27554 9.92594C3.16833 9.52584 3.40577 9.11459 3.80587 9.00738L4.60607 8.79297C5.2729 8.61429 5.66863 7.92887 5.48995 7.26204L5.27554 6.46184C5.16833 6.06174 5.40577 5.65049 5.80587 5.54328C6.20597 5.43608 6.61722 5.67351 6.72443 6.07361L6.93884 6.87381C7.33193 8.34084 6.46133 9.84877 4.9943 10.2419L4.1941 10.4563C3.794 10.5635 3.38274 10.326 3.27554 9.92594Z" fill="#28303F"/>
<path fill-rule="evenodd" clip-rule="evenodd" d="M18.0506 18.4563C18.4507 18.3491 18.6881 17.9378 18.5809 17.5377L18.3665 16.7375C18.1878 16.0707 18.5835 15.3853 19.2504 15.2066L20.0506 14.9922C20.4507 14.885 20.6881 14.4737 20.5809 14.0736C20.4737 13.6735 20.0624 13.4361 19.6623 13.5433L18.8621 13.7577C17.3951 14.1508 16.5245 15.6587 16.9176 17.1257L17.132 17.9259C17.2392 18.326 17.6505 18.5635 18.0506 18.4563Z" fill="#28303F"/>
<path fill-rule="evenodd" clip-rule="evenodd" d="M18.0506 5.54373C18.4507 5.65093 18.6881 6.06219 18.5809 6.46229L18.3665 7.26249C18.1878 7.92932 18.5835 8.61474 19.2504 8.79342L20.0506 9.00783C20.4507 9.11503 20.6881 9.52629 20.5809 9.92639C20.4737 10.3265 20.0624 10.5639 19.6623 10.4567L18.8621 10.2423C17.3951 9.84921 16.5245 8.34129 16.9176 6.87426L17.132 6.07406C17.2392 5.67396 17.6505 5.43652 18.0506 5.54373Z" fill="#28303F"/>
<path fill-rule="evenodd" clip-rule="evenodd" d="M3.27554 14.0741C3.16833 14.4742 3.40577 14.8854 3.80587 14.9926L4.60607 15.207C5.2729 15.3857 5.66863 16.0711 5.48995 16.738L5.27554 17.5382C5.16833 17.9383 5.40577 18.3495 5.80587 18.4567C6.20597 18.5639 6.61722 18.3265 6.72443 17.9264L6.93884 17.1262C7.33193 15.6592 6.46133 14.1512 4.9943 13.7581L4.1941 13.5437C3.794 13.4365 3.38274 13.674 3.27554 14.0741Z" fill="#28303F"/>
</svg>
