<svg width="24" height="24" viewBox="0 0 24 24" fill="none" xmlns="http://www.w3.org/2000/svg">
<path opacity="0.4" fill-rule="evenodd" clip-rule="evenodd" d="M22.6431 19.3858C22.43 19.7409 21.9693 19.8561 21.6141 19.643L18.9991 18.074C17.8342 17.375 16.3575 17.4744 15.2967 18.323L14.9673 18.5865C13.2325 19.9743 10.7675 19.9743 9.03271 18.5865L8.70331 18.323C7.64252 17.4744 6.16582 17.375 5.00094 18.074L2.38588 19.643C2.0307 19.8561 1.57 19.7409 1.35689 19.3858C1.14378 19.0306 1.25895 18.5699 1.61414 18.3568L4.2292 16.7877C5.93172 15.7662 8.08997 15.9114 9.64036 17.1517L9.96975 17.4152C11.1567 18.3648 12.8433 18.3648 14.0303 17.4152L14.3597 17.1517C15.91 15.9114 18.0683 15.7662 19.7708 16.7877L22.3859 18.3568C22.7411 18.5699 22.8562 19.0306 22.6431 19.3858Z" fill="#28303F"/>
<path fill-rule="evenodd" clip-rule="evenodd" d="M22.6431 13.3858C22.43 13.7409 21.9693 13.8561 21.6141 13.643L18.9991 12.074C17.8342 11.375 16.3575 11.4744 15.2967 12.323L14.9673 12.5865C13.2325 13.9743 10.7675 13.9743 9.03271 12.5865L8.70331 12.323C7.64252 11.4744 6.16582 11.375 5.00094 12.074L2.38588 13.643C2.0307 13.8561 1.57 13.7409 1.35689 13.3858C1.14378 13.0306 1.25895 12.5699 1.61414 12.3568L4.2292 10.7877C5.93172 9.76622 8.08997 9.91139 9.64036 11.1517L9.96975 11.4152C11.1567 12.3648 12.8433 12.3648 14.0303 11.4152L14.3597 11.1517C15.91 9.91139 18.0683 9.76622 19.7708 10.7877L22.3859 12.3568C22.7411 12.5699 22.8562 13.0306 22.6431 13.3858Z" fill="#28303F"/>
<path opacity="0.4" fill-rule="evenodd" clip-rule="evenodd" d="M22.6431 7.38576C22.43 7.74094 21.9693 7.85612 21.6141 7.64301L18.9991 6.07397C17.8342 5.37504 16.3575 5.47437 15.2967 6.323L14.9673 6.58651C13.2325 7.97434 10.7675 7.97434 9.03271 6.58651L8.70331 6.323C7.64252 5.47437 6.16582 5.37504 5.00094 6.07397L2.38588 7.64301C2.0307 7.85612 1.57 7.74094 1.35689 7.38576C1.14378 7.03057 1.25895 6.56988 1.61414 6.35677L4.2292 4.78773C5.93172 3.76622 8.08997 3.91139 9.64036 5.1517L9.96975 5.41521C11.1567 6.36478 12.8433 6.36478 14.0303 5.41521L14.3597 5.15169C15.91 3.91139 18.0683 3.76622 19.7708 4.78773L22.3859 6.35677C22.7411 6.56988 22.8562 7.03057 22.6431 7.38576Z" fill="#28303F"/>
</svg>
