<svg width="24" height="24" viewBox="0 0 24 24" fill="none" xmlns="http://www.w3.org/2000/svg">
<path d="M10 13L9.46967 13.5303C9.68417 13.7448 10.0068 13.809 10.287 13.6929C10.5673 13.5768 10.75 13.3033 10.75 13H10ZM14 13H13.25C13.25 13.4142 13.5858 13.75 14 13.75V13ZM8.58579 11.5858L8.05546 12.1161H8.05546L8.58579 11.5858ZM5.28528 13.8276L4.60251 14.138H4.60251L5.28528 13.8276ZM7.93419 19.6552L8.61697 19.3449L7.93419 19.6552ZM19.1517 19.9846L18.5005 19.6124L19.1517 19.9846ZM19.473 19.4223L20.1242 19.7944L20.1242 19.7944L19.473 19.4223ZM5.25 8C5.25 8.41421 5.58579 8.75 6 8.75C6.41422 8.75 6.75 8.41421 6.75 8H5.25ZM17.25 8C17.25 8.41421 17.5858 8.75 18 8.75C18.4142 8.75 18.75 8.41421 18.75 8H17.25ZM10.75 13V7H9.25V13H10.75ZM13.25 7V13H14.75V7H13.25ZM14 13.75H16V12.25H14V13.75ZM15.6787 21.25H11.5757V22.75H15.6787V21.25ZM7.10601 11.75H7.17158V10.25H7.10601V11.75ZM8.05546 12.1161L9.46967 13.5303L10.5303 12.4697L9.11612 11.0555L8.05546 12.1161ZM4.60251 14.138L7.25142 19.9656L8.61697 19.3449L5.96805 13.5173L4.60251 14.138ZM19.8029 20.3567L20.1242 19.7944L18.8218 19.0502L18.5005 19.6124L19.8029 20.3567ZM20.75 17.4377V17H19.25V17.4377H20.75ZM20.1242 19.7944C20.5343 19.0767 20.75 18.2644 20.75 17.4377H19.25C19.25 18.0033 19.1024 18.5591 18.8218 19.0502L20.1242 19.7944ZM7.17158 11.75C7.5031 11.75 7.82104 11.8817 8.05546 12.1161L9.11612 11.0555C8.6004 10.5397 7.90092 10.25 7.17158 10.25V11.75ZM7.10601 10.25C5.10597 10.25 3.77488 12.3172 4.60251 14.138L5.96805 13.5173C5.59186 12.6896 6.1969 11.75 7.10601 11.75V10.25ZM15.6787 22.75C17.3833 22.75 18.9572 21.8366 19.8029 20.3567L18.5005 19.6124C17.9219 20.6251 16.845 21.25 15.6787 21.25V22.75ZM16 13.75C17.7949 13.75 19.25 15.2051 19.25 17H20.75C20.75 14.3766 18.6234 12.25 16 12.25V13.75ZM12 5.75C12.6904 5.75 13.25 6.30964 13.25 7H14.75C14.75 5.48122 13.5188 4.25 12 4.25V5.75ZM11.5757 21.25C10.3012 21.25 9.14434 20.5051 8.61697 19.3449L7.25142 19.9656C8.0222 21.6613 9.71298 22.75 11.5757 22.75V21.25ZM10.75 7C10.75 6.30964 11.3096 5.75 12 5.75V4.25C10.4812 4.25 9.25 5.48122 9.25 7H10.75ZM6.75 8C6.75 5.10051 9.10051 2.75 12 2.75V1.25C8.27208 1.25 5.25 4.27208 5.25 8H6.75ZM12 2.75C14.8995 2.75 17.25 5.10051 17.25 8H18.75C18.75 4.27208 15.7279 1.25 12 1.25V2.75Z" fill="#28303F"/>
</svg>
