<svg width="24" height="24" viewBox="0 0 24 24" fill="none" xmlns="http://www.w3.org/2000/svg">
<path d="M16.2427 3.75736C15.1569 2.67157 13.6569 2 12 2C10.3432 2 8.84317 2.67157 7.75739 3.75736M9.87871 5.87868C10.4216 5.33579 11.1716 5 12 5C12.8285 5 13.5785 5.33579 14.1213 5.87868M12 16V22M12 22H15M12 22H9.00003M7.39906 16H16.601C18.126 16 19.0899 14.3618 18.3493 13.0287L16.1271 9.02871C15.7744 8.39378 15.1051 8 14.3788 8H9.62128C8.89494 8 8.2257 8.39378 7.87296 9.02871L5.65074 13.0287C4.91015 14.3618 5.87409 16 7.39906 16Z" stroke="#28303F" stroke-width="1.5" stroke-linecap="round" stroke-linejoin="round"/>
</svg>
