<svg width="24" height="24" viewBox="0 0 24 24" fill="none" xmlns="http://www.w3.org/2000/svg">
<path d="M3.99997 6H20M19 10V16C19 17.1046 18.1045 18 17 18H16.5M4.99997 10V16C4.99997 17.1046 5.8954 18 6.99997 18H7.49997M13 14L9.99997 18H14L11 22M5.23604 10H18.7639C20.2507 10 21.2177 8.43538 20.5528 7.10557L18.5528 3.10557C18.214 2.428 17.5214 2 16.7639 2H7.23604C6.4785 2 5.78597 2.428 5.44719 3.10557L3.44719 7.10557C2.78228 8.43538 3.74928 10 5.23604 10ZM10.2 2H13.8L15 10H8.99997L10.2 2Z" stroke="#28303F" stroke-width="1.5" stroke-linecap="round" stroke-linejoin="round"/>
</svg>
