<svg width="24" height="24" viewBox="0 0 24 24" fill="none" xmlns="http://www.w3.org/2000/svg">
<circle cx="12" cy="19" r="1" fill="#28303F"/>
<path d="M16.2427 3.75736C15.1569 2.67157 13.6569 2 12 2C10.3432 2 8.84317 2.67157 7.75739 3.75736M9.87871 5.87868C10.4216 5.33579 11.1716 5 12 5C12.8285 5 13.5785 5.33579 14.1213 5.87868M17 9H18M17 12H20M17 15H18M10 10C10 8.89543 10.8955 8 12 8C13.1046 8 14 8.89543 14 10L14 16.7639C14.6138 17.3132 15 18.1115 15 19C15 20.6569 13.6569 22 12 22C10.3432 22 9.00003 20.6569 9.00003 19C9.00003 18.1115 9.38628 17.3132 10 16.7639L10 10Z" stroke="#28303F" stroke-width="1.5" stroke-linecap="round" stroke-linejoin="round"/>
</svg>
