<svg width="24" height="24" viewBox="0 0 24 24" fill="none" xmlns="http://www.w3.org/2000/svg">
<path fill-rule="evenodd" clip-rule="evenodd" d="M7.49703 3.68712C7.87655 3.52116 8.04967 3.07897 7.88371 2.69945C7.71775 2.31994 7.27556 2.14682 6.89604 2.31277C4.63929 3.29963 2.72442 4.92017 1.37541 6.9491C1.14607 7.29403 1.23977 7.75957 1.5847 7.98891C1.92963 8.21825 2.39517 8.12454 2.62451 7.77961C3.81575 5.98796 5.50668 4.55748 7.49703 3.68712ZM17.1039 2.31277C16.7244 2.14682 16.2822 2.31994 16.1162 2.69945C15.9503 3.07897 16.1234 3.52116 16.5029 3.68712C18.4932 4.55748 20.1842 5.98796 21.3754 7.77961C21.6047 8.12454 22.0703 8.21824 22.4152 7.9889C22.7601 7.75957 22.8538 7.29403 22.6245 6.9491C21.2755 4.92017 19.3606 3.29963 17.1039 2.31277ZM18.9915 18.6678C20.2474 17.1205 21 15.1481 21 13C21 8.02944 16.9706 4 12 4C7.02944 4 3 8.02944 3 13C3 15.1481 3.75257 17.1204 5.00843 18.6677L3.34582 21.6331C3.14325 21.9944 3.27192 22.4515 3.63322 22.6541C3.99452 22.8567 4.45163 22.728 4.6542 22.3667L6.0968 19.7937C7.67703 21.168 9.74135 22 12 22C14.2586 22 16.3229 21.168 17.9031 19.7938L19.3458 22.3667C19.5484 22.728 20.0055 22.8567 20.3668 22.6541C20.7281 22.4515 20.8568 21.9944 20.6542 21.6331L18.9915 18.6678ZM12.75 10C12.75 9.58579 12.4142 9.25 12 9.25C11.5858 9.25 11.25 9.58579 11.25 10V12.25H9C8.58579 12.25 8.25 12.5858 8.25 13C8.25 13.4142 8.58579 13.75 9 13.75H11.25V16C11.25 16.4142 11.5858 16.75 12 16.75C12.4142 16.75 12.75 16.4142 12.75 16V13.75H15C15.4142 13.75 15.75 13.4142 15.75 13C15.75 12.5858 15.4142 12.25 15 12.25H12.75V10Z" fill="#28303F"/>
</svg>
