<svg width="24" height="24" viewBox="0 0 24 24" fill="none" xmlns="http://www.w3.org/2000/svg">
<path fill-rule="evenodd" clip-rule="evenodd" d="M7.49703 2.68712C7.87655 2.52116 8.04967 2.07897 7.88371 1.69945C7.71775 1.31994 7.27556 1.14682 6.89604 1.31277C4.63929 2.29963 2.72442 3.92017 1.37541 5.9491C1.14607 6.29403 1.23977 6.75957 1.5847 6.98891C1.92963 7.21825 2.39517 7.12454 2.62451 6.77961C3.81575 4.98796 5.50668 3.55748 7.49703 2.68712ZM17.1039 1.31277C16.7244 1.14682 16.2822 1.31994 16.1162 1.69945C15.9503 2.07897 16.1234 2.52116 16.5029 2.68712C18.4932 3.55748 20.1842 4.98796 21.3754 6.77961C21.6047 7.12454 22.0703 7.21824 22.4152 6.9889C22.7601 6.75957 22.8538 6.29403 22.6245 5.9491C21.2755 3.92017 19.3606 2.29963 17.1039 1.31277ZM18.9916 18.6678C20.2475 17.1205 21.0001 15.1481 21.0001 13C21.0001 8.02944 16.9707 4 12.0001 4C7.02956 4 3.00012 8.02944 3.00012 13C3.00012 15.1481 3.75269 17.1204 5.00856 18.6677L3.34594 21.6331C3.14337 21.9944 3.27204 22.4515 3.63334 22.6541C3.99464 22.8567 4.45175 22.728 4.65432 22.3667L6.09693 19.7937C7.67715 21.168 9.74147 22 12.0001 22C14.2587 22 16.323 21.168 17.9033 19.7938L19.346 22.3667C19.5485 22.728 20.0056 22.8567 20.3669 22.6541C20.7282 22.4515 20.8569 21.9944 20.6543 21.6331L18.9916 18.6678ZM15.4938 10.4356C15.8055 10.7083 15.8371 11.1822 15.5643 11.4939L12.6944 14.7738C12.0777 15.4786 11.0155 15.5729 10.2842 14.9879L8.53138 13.5857C8.20794 13.3269 8.1555 12.8549 8.41425 12.5315C8.67301 12.208 9.14498 12.1556 9.46843 12.4144L11.2212 13.8166C11.3257 13.9002 11.4775 13.8867 11.5656 13.786L14.4355 10.5061C14.7082 10.1944 15.1821 10.1628 15.4938 10.4356Z" fill="#28303F"/>
</svg>
