<svg width="24" height="24" viewBox="0 0 24 24" fill="none" xmlns="http://www.w3.org/2000/svg">
<path fill-rule="evenodd" clip-rule="evenodd" d="M12.75 13.627L12.7674 13.627C17.1094 13.627 20.0137 9.15784 18.2503 5.19012L16.9306 2.22081C16.7701 1.85969 16.412 1.62695 16.0168 1.62695H7.98322C7.58803 1.62695 7.22991 1.85969 7.06941 2.22081L5.74972 5.19012C3.98629 9.15784 6.89064 13.627 11.2326 13.627L11.25 13.627V20.877H9C8.58579 20.877 8.25 21.2127 8.25 21.627C8.25 22.0412 8.58579 22.377 9 22.377H15C15.4142 22.377 15.75 22.0412 15.75 21.627C15.75 21.2127 15.4142 20.877 15 20.877H12.75V13.627ZM12.8354 3.95613C13.2059 4.14137 13.3561 4.59188 13.1708 4.96236L12.2135 6.87695H13C13.2599 6.87695 13.5013 7.01154 13.638 7.23265C13.7747 7.45377 13.7871 7.72987 13.6708 7.96236L12.1708 10.9624C11.9856 11.3328 11.5351 11.483 11.1646 11.2978C10.7941 11.1125 10.644 10.662 10.8292 10.2915L11.7865 8.37695H11C10.7401 8.37695 10.4987 8.24236 10.362 8.02125C10.2254 7.80014 10.2129 7.52403 10.3292 7.29154L11.8292 4.29154C12.0144 3.92106 12.4649 3.77089 12.8354 3.95613Z" fill="#28303F"/>
</svg>
