<svg width="24" height="24" viewBox="0 0 24 24" fill="none" xmlns="http://www.w3.org/2000/svg">
<path d="M20.3085 8.75213C20.6014 8.45924 20.6014 7.98437 20.3085 7.69147C20.0156 7.39858 19.5407 7.39858 19.2478 7.69147L20.3085 8.75213ZM17.8336 9.10569C17.5407 9.39858 17.5407 9.87345 17.8336 10.1663C18.1265 10.4592 18.6014 10.4592 18.8943 10.1663L17.8336 9.10569ZM4.75216 7.6915C4.45927 7.39861 3.9844 7.39861 3.6915 7.6915C3.39861 7.9844 3.39861 8.45927 3.6915 8.75216L4.75216 7.6915ZM5.10572 10.1664C5.39861 10.4593 5.87348 10.4593 6.16638 10.1664C6.45927 9.87348 6.45927 9.39861 6.16638 9.10572L5.10572 10.1664ZM11.2929 2.70708L11.8232 3.23741V3.23741L11.2929 2.70708ZM9.46967 3.46964C9.17678 3.76253 9.17678 4.23741 9.46967 4.5303C9.76256 4.82319 10.2374 4.82319 10.5303 4.5303L9.46967 3.46964ZM12.7071 2.70708L12.1768 3.23741V3.23741L12.7071 2.70708ZM13.4697 4.5303C13.7626 4.82319 14.2374 4.82319 14.5303 4.5303C14.8232 4.23741 14.8232 3.76253 14.5303 3.46964L13.4697 4.5303ZM11.25 6.99997C11.25 7.41418 11.5858 7.74997 12 7.74997C12.4142 7.74997 12.75 7.41418 12.75 6.99997H11.25ZM12.75 2.99997C12.75 2.58576 12.4142 2.24997 12 2.24997C11.5858 2.24997 11.25 2.58576 11.25 2.99997H12.75ZM3 15.25C2.58579 15.25 2.25 15.5858 2.25 16C2.25 16.4142 2.58579 16.75 3 16.75V15.25ZM21 16.75C21.4142 16.75 21.75 16.4142 21.75 16C21.75 15.5858 21.4142 15.25 21 15.25V16.75ZM6 18.25C5.58579 18.25 5.25 18.5858 5.25 19C5.25 19.4142 5.58579 19.75 6 19.75V18.25ZM18 19.75C18.4142 19.75 18.75 19.4142 18.75 19C18.75 18.5858 18.4142 18.25 18 18.25V19.75ZM9 21.25C8.58579 21.25 8.25 21.5858 8.25 22C8.25 22.4142 8.58579 22.75 9 22.75V21.25ZM15 22.75C15.4142 22.75 15.75 22.4142 15.75 22C15.75 21.5858 15.4142 21.25 15 21.25V22.75ZM6.75 16C6.75 13.1005 9.1005 10.75 12 10.75V9.24997C8.27208 9.24997 5.25 12.272 5.25 16H6.75ZM12 10.75C14.8995 10.75 17.25 13.1005 17.25 16H18.75C18.75 12.272 15.7279 9.24997 12 9.24997V10.75ZM19.2478 7.69147L17.8336 9.10569L18.8943 10.1663L20.3085 8.75213L19.2478 7.69147ZM3.6915 8.75216L5.10572 10.1664L6.16638 9.10572L4.75216 7.6915L3.6915 8.75216ZM10.7626 2.17675L9.46967 3.46964L10.5303 4.5303L11.8232 3.23741L10.7626 2.17675ZM12.1768 3.23741L13.4697 4.5303L14.5303 3.46964L13.2374 2.17675L12.1768 3.23741ZM12.75 6.99997V2.99997H11.25V6.99997H12.75ZM11.8232 3.23741C11.9209 3.13978 12.0791 3.13978 12.1768 3.23741L13.2374 2.17675C12.554 1.49333 11.446 1.49333 10.7626 2.17675L11.8232 3.23741ZM3 16.75H21V15.25H3V16.75ZM6 19.75H18V18.25H6V19.75ZM9 22.75H15V21.25H9V22.75Z" fill="#28303F"/>
</svg>
