<svg width="24" height="24" viewBox="0 0 24 24" fill="none" xmlns="http://www.w3.org/2000/svg">
<path fill-rule="evenodd" clip-rule="evenodd" d="M6.75 8C6.75 5.10051 9.10051 2.75 12 2.75C14.8995 2.75 17.25 5.10051 17.25 8C17.25 8.41421 17.5858 8.75 18 8.75C18.4142 8.75 18.75 8.41421 18.75 8C18.75 4.27208 15.7279 1.25 12 1.25C8.27208 1.25 5.25 4.27208 5.25 8C5.25 8.41421 5.58579 8.75 6 8.75C6.41422 8.75 6.75 8.41421 6.75 8ZM10 13V7C10 5.89543 10.8954 5 12 5C13.1046 5 14 5.89543 14 7V13H16C18.2091 13 20 14.7909 20 17V17.4377C20 18.1339 19.8183 18.8179 19.473 19.4223L19.1517 19.9846C18.4395 21.2309 17.1141 22 15.6787 22H11.5757C10.0071 22 8.58327 21.0832 7.93419 19.6552L5.28528 13.8276C4.68337 12.5034 5.65144 11 7.10601 11H7.17158C7.70201 11 8.21072 11.2107 8.58579 11.5858L10 13Z" fill="#28303F"/>
</svg>
