<svg width="24" height="24" viewBox="0 0 24 24" fill="none" xmlns="http://www.w3.org/2000/svg">
<path opacity="0.4" d="M2 8C2 5.79086 3.79086 4 6 4H13C15.2091 4 17 5.79086 17 8V16C17 18.2091 15.2091 20 13 20H6C3.79086 20 2 18.2091 2 16V8Z" fill="#28303F"/>
<path d="M17 10.9153C17 9.89906 17.3868 8.92092 18.0819 8.17954L18.5409 7.68985C19.781 6.36715 22 7.24466 22 9.05774V14.9426C22 16.7557 19.781 17.6332 18.5409 16.3105L18.0819 15.8208C17.3868 15.0794 17 14.1013 17 13.0851V10.9153Z" fill="#28303F"/>
<circle cx="11" cy="10" r="2" fill="#28303F"/>
</svg>
