<svg width="24" height="24" viewBox="0 0 24 24" fill="none" xmlns="http://www.w3.org/2000/svg">
<path opacity="0.4" fill-rule="evenodd" clip-rule="evenodd" d="M12.7734 8.02336C13.2578 8.07023 13.5 8.13625 13.5 8.13625V17C13.5 17.4142 13.1642 17.75 12.75 17.75C12.3358 17.75 12 17.4142 12 17V7.99996C12 7.99996 12.332 7.98072 12.7734 8.02336Z" fill="#28303F"/>
<path d="M13.5 17C13.5 19.7614 11.2614 22 8.5 22C5.73858 22 3.5 19.7614 3.5 17C3.5 14.2386 5.73858 12 8.5 12C11.2614 12 13.5 14.2386 13.5 17Z" fill="#28303F"/>
<path opacity="0.4" d="M20 10C20 6.26508 17.4405 3.12792 13.9798 2.24689C12.9093 1.97439 12 2.89547 12 4.00004V8.00004C14.9177 8.00004 17.4707 9.56204 18.8682 11.8954C19.0991 12.2809 19.6892 12.2613 19.7912 11.8237C19.9278 11.2379 20 10.6274 20 10Z" fill="#28303F"/>
</svg>
