<svg width="24" height="24" viewBox="0 0 24 24" fill="none" xmlns="http://www.w3.org/2000/svg">
<path opacity="0.4" d="M2 9C2 6.79086 3.79086 5 6 5H13C15.2091 5 17 6.79086 17 9V15C17 17.2091 15.2091 19 13 19H6C3.79086 19 2 17.2091 2 15V9Z" fill="#28303F"/>
<path d="M17 9.33339L18.5409 7.68973C19.781 6.36703 22 7.24454 22 9.05762V14.9425C22 16.7556 19.781 17.6331 18.5409 16.3104L17 14.6667V9.33339Z" fill="#28303F"/>
<path d="M14 10C14 11.1046 13.1046 12 12 12C10.8954 12 10 11.1046 10 10C10 8.89543 10.8954 8 12 8C13.1046 8 14 8.89543 14 10Z" fill="#28303F"/>
</svg>
