<svg width="24" height="24" viewBox="0 0 24 24" fill="none" xmlns="http://www.w3.org/2000/svg">
<path opacity="0.4" d="M2 9C2 6.79086 3.79086 5 6 5H9.5H13C15.2091 5 17 6.79086 17 9V15C17 17.2091 15.2091 19 13 19H6C3.79086 19 2 17.2091 2 15V9Z" fill="#28303F"/>
<path d="M13 5H5.82031L16.8594 16.043C16.8867 15.9375 17 15.6536 17 15V9C17 6.79086 15.2091 5 13 5Z" fill="#28303F"/>
<path d="M17 9.33339L18.5409 7.68973C19.781 6.36703 22 7.24454 22 9.05762V14.9425C22 16.7556 19.781 17.6331 18.5409 16.3104L17 14.6667V9.33339Z" fill="#28303F"/>
<path fill-rule="evenodd" clip-rule="evenodd" d="M1.21967 1.46967C0.926777 1.76256 0.926777 2.23744 1.21967 2.53033L21.2197 22.5303C21.5126 22.8232 21.9874 22.8232 22.2803 22.5303C22.5732 22.2374 22.5732 21.7626 22.2803 21.4697L2.28033 1.46967C1.98744 1.17678 1.51256 1.17678 1.21967 1.46967Z" fill="#28303F"/>
</svg>
