<svg width="24" height="24" viewBox="0 0 24 24" fill="none" xmlns="http://www.w3.org/2000/svg">
<path opacity="0.4" d="M10.3931 18.8304L3.03601 8.89839C2.44212 8.09664 2.52319 6.96823 3.29596 6.3371C8.74399 1.88763 15.2564 1.88763 20.7044 6.3371C21.4771 6.96823 21.5582 8.09664 20.9643 8.89839L14.2224 18L13.6073 18.8304C12.8077 19.9098 11.1926 19.9098 10.3931 18.8304Z" fill="#28303F"/>
<path fill-rule="evenodd" clip-rule="evenodd" d="M17 9.25C17.4142 9.25 17.75 9.58579 17.75 10V14C17.75 14.4142 17.4142 14.75 17 14.75C16.5858 14.75 16.25 14.4142 16.25 14V10C16.25 9.58579 16.5858 9.25 17 9.25Z" fill="#28303F"/>
<path fill-rule="evenodd" clip-rule="evenodd" d="M17 16.25C17.4142 16.25 17.75 16.5858 17.75 17V18C17.75 18.4142 17.4142 18.75 17 18.75C16.5858 18.75 16.25 18.4142 16.25 18V17C16.25 16.5858 16.5858 16.25 17 16.25Z" fill="#28303F"/>
</svg>
