<svg width="24" height="24" viewBox="0 0 24 24" fill="none" xmlns="http://www.w3.org/2000/svg">
<path opacity="0.4" d="M10.3931 18.8304L3.03601 8.89839C2.44212 8.09664 2.52319 6.96823 3.29596 6.3371C8.74399 1.88763 15.2564 1.88763 20.7044 6.3371C21.4771 6.96823 21.5582 8.09664 20.9643 8.89839L14.2224 18L13.6073 18.8304C12.8077 19.9098 11.1926 19.9098 10.3931 18.8304Z" fill="#28303F"/>
<path fill-rule="evenodd" clip-rule="evenodd" d="M13.4697 13.4697C13.7626 13.1768 14.2374 13.1768 14.5303 13.4697L16.1213 15.0607L17.7123 13.4697C18.0052 13.1768 18.4801 13.1768 18.773 13.4697C19.0659 13.7626 19.0659 14.2374 18.773 14.5303L17.182 16.1213L18.773 17.7123C19.0659 18.0052 19.0659 18.4801 18.773 18.773C18.4801 19.0659 18.0052 19.0659 17.7123 18.773L16.1213 17.182L14.5304 18.773C14.2375 19.0659 13.7626 19.0659 13.4697 18.773C13.1768 18.4801 13.1768 18.0052 13.4697 17.7123L15.0607 16.1213L13.4697 14.5303C13.1768 14.2374 13.1768 13.7626 13.4697 13.4697Z" fill="#28303F"/>
</svg>
