<svg width="24" height="24" viewBox="0 0 24 24" fill="none" xmlns="http://www.w3.org/2000/svg">
<g id="Icon /User">
<path id="Vector" d="M21.2824 18.7359C20.7771 17.5391 20.0439 16.4519 19.1235 15.535C18.2059 14.6155 17.1189 13.8824 15.9226 13.3761C15.9119 13.3708 15.9012 13.3681 15.8905 13.3627C17.5592 12.1574 18.644 10.194 18.644 7.9788C18.644 4.30915 15.6708 1.33594 12.0012 1.33594C8.33154 1.33594 5.35833 4.30915 5.35833 7.9788C5.35833 10.194 6.44315 12.1574 8.1119 13.3654C8.10118 13.3708 8.09047 13.3734 8.07975 13.3788C6.87975 13.885 5.80297 14.6109 4.87886 15.5377C3.95933 16.4553 3.22619 17.5423 2.71993 18.7386C2.22258 19.9098 1.95435 21.1655 1.92975 22.4377C1.92904 22.4663 1.93405 22.4948 1.9445 22.5214C1.95495 22.548 1.97062 22.5723 1.99059 22.5927C2.01056 22.6132 2.03443 22.6295 2.06078 22.6406C2.08713 22.6517 2.11544 22.6574 2.14404 22.6574H3.75118C3.86904 22.6574 3.96279 22.5636 3.96547 22.4484C4.01904 20.3806 4.8494 18.444 6.31725 16.9761C7.836 15.4574 9.85297 14.6217 12.0012 14.6217C14.1494 14.6217 16.1664 15.4574 17.6851 16.9761C19.153 18.444 19.9833 20.3806 20.0369 22.4484C20.0396 22.5663 20.1333 22.6574 20.2512 22.6574H21.8583C21.8869 22.6574 21.9152 22.6517 21.9416 22.6406C21.9679 22.6295 21.9918 22.6132 22.0118 22.5927C22.0317 22.5723 22.0474 22.548 22.0579 22.5214C22.0683 22.4948 22.0733 22.4663 22.0726 22.4377C22.0458 21.1574 21.7806 19.9118 21.2824 18.7359ZM12.0012 12.5859C10.7717 12.5859 9.61458 12.1065 8.74404 11.2359C7.8735 10.3654 7.39404 9.20826 7.39404 7.9788C7.39404 6.74933 7.8735 5.59219 8.74404 4.72165C9.61458 3.85112 10.7717 3.37165 12.0012 3.37165C13.2306 3.37165 14.3878 3.85112 15.2583 4.72165C16.1289 5.59219 16.6083 6.74933 16.6083 7.9788C16.6083 9.20826 16.1289 10.3654 15.2583 11.2359C14.3878 12.1065 13.2306 12.5859 12.0012 12.5859Z" fill="white"/>
</g>
</svg>
