<svg width="24" height="24" viewBox="0 0 24 24" fill="none" xmlns="http://www.w3.org/2000/svg">
<path d="M15 16H16.1265C17.3136 16 18.4394 16.5273 19.1994 17.4393L20.2663 18.7196C21.3519 20.0223 20.4256 22 18.7299 22H5.27006C3.57438 22 2.64807 20.0223 3.73361 18.7196L4.80059 17.4393C5.56056 16.5273 6.68635 16 7.87347 16H8.99997" stroke="#28303F" stroke-width="1.5" stroke-linecap="round" stroke-linejoin="round"/>
<path d="M12 19V10M12 10V4C12 2.89543 12.8954 2 14 2H19.382C20.1253 2 20.6088 2.78231 20.2764 3.44721L19.2236 5.55279C19.0828 5.83431 19.0828 6.16569 19.2236 6.44721L20.2764 8.55279C20.6088 9.21769 20.1253 10 19.382 10H12Z" stroke="#28303F" stroke-width="1.5" stroke-linecap="round"/>
</svg>
