<svg width="26" height="26" viewBox="0 0 26 26" fill="none" xmlns="http://www.w3.org/2000/svg">
<path d="M13.0628 5.00025L13.0785 3.00031" stroke="#28303F" stroke-width="1.5" stroke-linecap="round"/>
<path d="M12.9217 22.9997L12.9374 20.9998" stroke="#28303F" stroke-width="1.5" stroke-linecap="round"/>
<path d="M20.9998 13.0627L22.9998 13.0784" stroke="#28303F" stroke-width="1.5" stroke-linecap="round"/>
<path d="M3.00031 12.9216L5.00024 12.9373" stroke="#28303F" stroke-width="1.5" stroke-linecap="round"/>
<path d="M4.07092 3.92973L21.9293 22.0703" stroke="#28303F" stroke-width="1.5" stroke-linecap="round"/>
<path d="M9.76431 5.68143C10.7721 5.23514 11.8889 4.99105 13.0627 5.00025C17.4809 5.03489 21.0344 8.64458 20.9998 13.0627C20.9906 14.2366 20.729 15.3494 20.267 16.3501M7.38769 7.29899C5.92868 8.73531 5.0176 10.7282 5.00028 12.9373C4.96565 17.3554 8.51918 20.9651 12.9373 20.9998C15.1464 21.0171 17.1534 20.1374 18.6124 18.701" stroke="#28303F" stroke-width="1.5" stroke-linecap="round"/>
<path d="M15.1 15.1425C14.5533 15.6784 13.8026 16.0064 12.9766 15.9999C11.3198 15.9869 9.98719 14.6333 10.0002 12.9765C10.0067 12.1454 10.3505 11.3959 10.9008 10.8569" stroke="#28303F" stroke-width="1.5"/>
</svg>
