<svg width="24" height="24" viewBox="0 0 24 24" fill="none" xmlns="http://www.w3.org/2000/svg">
<path d="M19.8934 6.2699C19.8934 8.63139 17.6664 12.6837 15.4394 12.6837C13.2124 12.6837 10.9854 8.63139 10.9854 6.2699C10.9854 3.90841 12.9795 1.99405 15.4394 1.99405C17.8993 1.99405 19.8934 3.90841 19.8934 6.2699Z" stroke="#28303F" stroke-width="1.5"/>
<path d="M16.7756 6.00266C16.7756 6.74063 16.1773 7.33887 15.4394 7.33887C14.7014 7.33887 14.1032 6.74063 14.1032 6.00266C14.1032 5.2647 14.7014 4.66646 15.4394 4.66646C16.1773 4.66646 16.7756 5.2647 16.7756 6.00266Z" stroke="#28303F" stroke-width="1.5"/>
<path d="M8 6.03555C6.13272 6.24456 3.85997 7.79266 2.72215 8.65299C2.25538 9.00593 2 9.56264 2 10.1478V19.8172C2 20.6707 3.0279 21.1656 3.73627 20.6896C4.94575 19.8768 6.58869 18.9539 8 18.7959M8 6.03555V18.7959M8 6.03555C9.21922 5.89908 10.1745 6.3437 11.0599 6.94239M8 18.7959C11.3183 18.4245 12.6817 22.3574 16 21.986M16 21.986C17.8673 21.777 20.14 20.2289 21.2778 19.3686C21.7446 19.0156 22 18.4589 22 17.8737C22 17.8737 22 17.8737 22 17.8737C22 17.8737 22 9.05775 22 8.2043C22 7.35085 20.9721 6.85594 20.2637 7.33197C20.0372 7.48419 19.7955 7.64028 19.5429 7.79448M16 21.986V12.5605" stroke="#28303F" stroke-width="1.5"/>
</svg>
