<svg width="24" height="24" viewBox="0 0 24 24" fill="none" xmlns="http://www.w3.org/2000/svg">
<path d="M8 18.8344C6.58869 18.9924 4.94575 19.9153 3.73627 20.7281C3.0279 21.2041 2 20.7092 2 19.8557V10.1863C2 9.60113 2.25538 9.04442 2.72215 8.69148C3.73204 7.92788 5.63599 6.62248 7.35696 6.19245M8 18.8344C11.3183 18.463 12.6817 22.3959 16 22.0245M8 18.8344V9.37845M16 22.0245C17.8673 21.8155 20.14 20.2674 21.2778 19.407C21.7446 19.0541 22 18.4974 22 17.9122V8.24279C22 7.38934 20.9721 6.89443 20.2637 7.37046C19.2688 8.03903 17.9806 8.78215 16.7693 9.11271M16 22.0245V11.2114" stroke="#28303F" stroke-width="1.5"/>
<path d="M17.4619 6.86343C17.4619 9.5144 14.9619 14.0634 12.4619 14.0634C9.96191 14.0634 7.46191 9.5144 7.46191 6.86343C7.46191 4.21247 9.70049 2.06343 12.4619 2.06343C15.2233 2.06343 17.4619 4.21247 17.4619 6.86343Z" stroke="#28303F" stroke-width="1.5"/>
<path d="M13.9619 6.56343C13.9619 7.39186 13.2903 8.06343 12.4619 8.06343C11.6335 8.06343 10.9619 7.39186 10.9619 6.56343C10.9619 5.73501 11.6335 5.06343 12.4619 5.06343C13.2903 5.06343 13.9619 5.73501 13.9619 6.56343Z" stroke="#28303F" stroke-width="1.5"/>
</svg>
