<svg width="24" height="24" viewBox="0 0 24 24" fill="none" xmlns="http://www.w3.org/2000/svg">
<path d="M8.56641 6.02478C6.69913 6.23379 4.42638 7.78189 3.28856 8.64222C2.82178 8.99516 2.56641 9.55187 2.56641 10.1371V19.8065C2.56641 20.6599 3.59431 21.1548 4.30267 20.6788C5.51216 19.866 7.1551 18.9431 8.56641 18.7851M8.56641 6.02478C11.8847 5.65335 13.2481 9.5863 16.5664 9.21487M8.56641 6.02478V18.7851M16.5664 9.21487C17.9777 9.0569 19.6207 8.13397 20.8301 7.32119C21.5385 6.84517 22.5664 7.34007 22.5664 8.19353V17.8629C22.5664 18.4481 22.311 19.0048 21.8443 19.3578C20.7064 20.2181 18.4337 21.7662 16.5664 21.9752M16.5664 9.21487V21.9752M8.56641 18.7851C11.8847 18.4137 13.2481 22.3466 16.5664 21.9752" stroke="#28303F" stroke-width="1.5"/>
<path d="M13.1022 13.1069C13.1022 13.5212 13.438 13.8569 13.8522 13.8569C14.2664 13.8569 14.6022 13.5212 14.6022 13.1069H13.1022ZM13.8522 2.08337V1.33337C13.6533 1.33337 13.4625 1.41239 13.3218 1.55304C13.1812 1.6937 13.1022 1.88446 13.1022 2.08337L13.8522 2.08337ZM19.8522 2.08337L20.5179 2.42881C20.6385 2.19631 20.6291 1.91771 20.4931 1.69387C20.3571 1.47003 20.1141 1.33337 19.8522 1.33337V2.08337ZM19.8522 5.7065V6.4565C20.1214 6.4565 20.3699 6.31225 20.5034 6.07852C20.6369 5.84479 20.6349 5.55743 20.4982 5.32556L19.8522 5.7065ZM18.8522 4.01057L18.1865 3.66514C18.0675 3.89449 18.0749 4.16894 18.2061 4.39151L18.8522 4.01057ZM14.6022 13.1069V5.7065H13.1022V13.1069H14.6022ZM13.8522 2.83337H19.8522V1.33337H13.8522V2.83337ZM19.8522 4.9565H13.8522V6.4565H19.8522V4.9565ZM14.6022 5.7065V2.08337L13.1022 2.08337V5.7065H14.6022ZM19.1865 1.73794L18.1865 3.66514L19.5179 4.356L20.5179 2.42881L19.1865 1.73794ZM18.2061 4.39151L19.2061 6.08745L20.4982 5.32556L19.4982 3.62963L18.2061 4.39151Z" fill="#28303F"/>
</svg>
