<svg width="24" height="24" viewBox="0 0 24 24" fill="none" xmlns="http://www.w3.org/2000/svg">
<path d="M14 16H16.1265C17.3136 16 18.4394 16.5273 19.1994 17.4393L20.2663 18.7196C21.3519 20.0223 20.4256 22 18.7299 22H5.27006C3.57438 22 2.64807 20.0223 3.73361 18.7196L4.80059 17.4393C5.56056 16.5273 6.68635 16 7.87347 16H9.99997" stroke="#28303F" stroke-width="1.5" stroke-linecap="round" stroke-linejoin="round"/>
<path d="M12 6C13.1046 6 14 5.10457 14 4C14 2.89543 13.1046 2 12 2C10.8954 2 10 2.89543 10 4C10 5.10457 10.8954 6 12 6ZM12 6C14.2091 6 16 7.79086 16 10V12C16 12.5523 15.5523 13 15 13C14.4477 13 14 13.4477 14 14V17C14 18.1046 13.1046 19 12 19C10.8954 19 10 18.1046 10 17V14C10 13.4477 9.55228 13 9 13C8.44772 13 8 12.5523 8 12V10C8 7.79086 9.79086 6 12 6Z" stroke="#28303F" stroke-width="1.5" stroke-linejoin="round"/>
</svg>
