<svg width="24" height="24" viewBox="0 0 24 24" fill="none" xmlns="http://www.w3.org/2000/svg">
<path d="M15 15H16.1265C17.3136 15 18.4394 15.5273 19.1994 16.4393L20.2663 17.7196C21.3519 19.0223 20.4256 21 18.7299 21H5.27006C3.57438 21 2.64807 19.0223 3.73361 17.7196L4.80059 16.4393C5.56056 15.5273 6.68635 15 7.87347 15H8.99997" stroke="#28303F" stroke-width="1.5" stroke-linecap="round" stroke-linejoin="round"/>
<path d="M12 7C13.1046 7 14 6.10457 14 5C14 3.89543 13.1046 3 12 3C10.8954 3 10 3.89543 10 5C10 6.10457 10.8954 7 12 7ZM12 7V17" stroke="#28303F" stroke-width="1.5" stroke-linecap="round"/>
</svg>
