<svg width="24" height="24" viewBox="0 0 24 24" fill="none" xmlns="http://www.w3.org/2000/svg">
<path d="M12 16V17" stroke="#28303F" stroke-width="1.5" stroke-linecap="round"/>
<path d="M12 11.5V12.5" stroke="#28303F" stroke-width="1.5" stroke-linecap="round"/>
<path d="M12 7V8" stroke="#28303F" stroke-width="1.5" stroke-linecap="round"/>
<path d="M11.1676 4H8.38609C7.5524 4 6.80616 4.51714 6.51343 5.29775L2.01343 17.2978C1.52312 18.6053 2.48968 20 3.88609 20H20.1141C21.5105 20 22.4771 18.6053 21.9867 17.2978L20.7084 13.889" stroke="#28303F" stroke-width="1.5" stroke-linecap="round"/>
<path d="M19.4244 6.31262C19.4244 7.07192 18.8089 7.68746 18.0496 7.68746C17.2903 7.68746 16.6748 7.07192 16.6748 6.31262C16.6748 5.55331 17.2903 4.93777 18.0496 4.93777C18.8089 4.93777 19.4244 5.55331 19.4244 6.31262Z" stroke="#28303F" stroke-width="1.5"/>
<path d="M22.1741 6.31261C22.1741 8.59053 19.4244 11.812 18.0496 11.812C16.6747 11.812 13.925 8.59053 13.925 6.31261C13.925 4.03469 15.7717 2.18806 18.0496 2.18806C20.3275 2.18806 22.1741 4.03469 22.1741 6.31261Z" stroke="#28303F" stroke-width="1.5"/>
</svg>
