<svg width="24" height="24" viewBox="0 0 24 24" fill="none" xmlns="http://www.w3.org/2000/svg">
<path d="M13.4998 4.5099V3C13.4998 2.44772 13.052 2 12.4998 2H11.4998C10.9475 2 10.4998 2.44772 10.4998 3V5.31375M13.4998 4.5099L15.7181 3.91549C16.0115 3.83687 16.3248 3.89589 16.5695 4.07591L18.1168 5.21421C18.4936 5.49136 18.6279 5.99264 18.4402 6.42103L17.6693 8.1805C17.5474 8.45875 17.3056 8.6665 17.0122 8.74512L13.4998 9.68628M13.4998 4.5099L10.4998 5.31375M10.4998 5.31375L5.55717 6.63811C5.02371 6.78105 4.70713 7.32939 4.85007 7.86285L5.62653 10.7606C5.76947 11.2941 6.3178 11.6107 6.85127 11.4677L10.4998 10.4901M13.4998 9.68628L10.4998 10.4901M13.4998 9.68628V14M10.4998 10.4901V14M13.4998 14H16.5191C16.8229 14 17.1102 14.1381 17.3 14.3753L18.5 15.8753C18.7922 16.2405 18.7922 16.7595 18.5 17.1247L17.3 18.6247C17.1102 18.8619 16.8229 19 16.5191 19H13.4998M13.4998 14H10.4998M10.4998 14H5.99976C5.44747 14 4.99976 14.4477 4.99976 15V18C4.99976 18.5523 5.44747 19 5.99976 19H10.4998M13.4998 19V21C13.4998 21.5523 13.052 22 12.4998 22H11.4998C10.9475 22 10.4998 21.5523 10.4998 21L10.4998 19M13.4998 19H10.4998" stroke="#28303F" stroke-width="1.5"/>
</svg>
