<svg width="24" height="24" viewBox="0 0 24 24" fill="none" xmlns="http://www.w3.org/2000/svg">
<path d="M17.482 10.3355L18.8962 11.7497M15.3607 12.4568V13.871M19.6033 8.21416H21.0175M8.00007 6L3.20537 11.5938C2.52525 12.3873 2.57069 13.5706 3.30967 14.3096L11.0001 22M11.0001 22H15.0001M11.0001 22H7.00007M8.15077 5.23296L9.80068 9.2399C10.3441 10.5596 12.0551 10.9018 13.0643 9.89261L15.8927 7.06419C16.9018 6.05504 16.5596 4.34401 15.24 3.80062L11.233 2.1507C10.4864 1.84328 9.62823 2.01493 9.05731 2.58584L8.58591 3.05725C8.01499 3.62817 7.84335 4.48638 8.15077 5.23296Z" stroke="#28303F" stroke-width="1.5" stroke-linecap="round" stroke-linejoin="round"/>
</svg>
