<svg width="24" height="24" viewBox="0 0 24 24" fill="none" xmlns="http://www.w3.org/2000/svg">
<path opacity="0.4" d="M11.1723 21.6237L3.0027 17.9102C2.2211 17.555 2.22111 16.4448 3.0027 16.0895L11.1723 12.376C11.6981 12.137 12.3017 12.137 12.8275 12.376L20.9971 16.0895C21.7787 16.4448 21.7787 17.555 20.9971 17.9102L12.8275 21.6237C12.3017 21.8627 11.6981 21.8627 11.1723 21.6237Z" fill="#28303F"/>
<path d="M11.1723 16.6237L3.0027 12.9102C2.2211 12.555 2.22111 11.4448 3.0027 11.0895L11.1723 7.37604C11.6981 7.13702 12.3017 7.13702 12.8275 7.37604L20.9971 11.0895C21.7787 11.4448 21.7787 12.555 20.9971 12.9102L12.8275 16.6237C12.3017 16.8627 11.6981 16.8627 11.1723 16.6237Z" fill="#28303F"/>
<path opacity="0.4" d="M11.1723 11.6237L3.0027 7.91023C2.2211 7.55496 2.22111 6.44476 3.0027 6.08949L11.1723 2.37604C11.6981 2.13702 12.3017 2.13702 12.8275 2.37604L20.9971 6.08949C21.7787 6.44476 21.7787 7.55496 20.9971 7.91023L12.8275 11.6237C12.3017 11.8627 11.6981 11.8627 11.1723 11.6237Z" fill="#28303F"/>
</svg>
