<svg width="24" height="24" viewBox="0 0 24 24" fill="none" xmlns="http://www.w3.org/2000/svg">
<path opacity="0.4" d="M14.8284 6.34262C15.6094 5.56157 16.8758 5.56157 17.6568 6.34262C18.4379 7.12367 18.4379 8.39 17.6568 9.17105L9.17154 17.6563C8.39049 18.4374 7.12416 18.4374 6.34311 17.6563C5.56206 16.8753 5.56206 15.609 6.34311 14.8279L14.8284 6.34262Z" fill="#28303F"/>
<path d="M17.6568 14.8279C18.4379 15.609 18.4379 16.8753 17.6568 17.6563C16.8758 18.4374 15.6094 18.4374 14.8284 17.6563L6.34311 9.17105C5.56206 8.39 5.56206 7.12367 6.34311 6.34262C7.12416 5.56157 8.39049 5.56157 9.17154 6.34262L17.6568 14.8279Z" fill="#28303F"/>
</svg>
