<svg width="24" height="24" viewBox="0 0 24 24" fill="none" xmlns="http://www.w3.org/2000/svg">
<path opacity="0.4" d="M6 2H18C20.2091 2 22 3.79086 22 6V18C22 20.2091 20.2091 22 18 22H6C3.79086 22 2 20.2091 2 18V6C2 3.79086 3.79086 2 6 2Z" fill="#28303F"/>
<path fill-rule="evenodd" clip-rule="evenodd" d="M15.3588 9.70172C15.6517 9.40882 15.6517 8.93395 15.3588 8.64106C15.0659 8.34816 14.591 8.34816 14.2982 8.64106L12.0001 10.9392L9.70197 8.64107C9.40908 8.34818 8.9342 8.34818 8.64131 8.64107C8.34842 8.93396 8.34842 9.40884 8.64131 9.70173L10.9394 11.9998L8.6413 14.2979C8.34841 14.5908 8.34841 15.0657 8.6413 15.3586C8.93419 15.6515 9.40907 15.6515 9.70196 15.3586L12.0001 13.0605L14.2982 15.3586C14.5911 15.6515 15.0659 15.6515 15.3588 15.3586C15.6517 15.0657 15.6517 14.5908 15.3588 14.2979L13.0607 11.9998L15.3588 9.70172Z" fill="#28303F"/>
</svg>
