<svg width="24" height="24" viewBox="0 0 24 24" fill="none" xmlns="http://www.w3.org/2000/svg">
<path opacity="0.4" d="M22 12C22 17.5228 17.5228 22 12 22C6.47715 22 2 17.5228 2 12C2 6.47715 6.47715 2 12 2C17.5228 2 22 6.47715 22 12Z" fill="#28303F"/>
<path fill-rule="evenodd" clip-rule="evenodd" d="M14.2982 15.3588C14.5911 15.6517 15.0659 15.6517 15.3588 15.3588C15.6517 15.0659 15.6517 14.591 15.3588 14.2982L13.0608 12.0001L15.3588 9.70209C15.6517 9.4092 15.6517 8.93433 15.3588 8.64143C15.0659 8.34854 14.591 8.34854 14.2982 8.64143L12.0001 10.9395L9.70198 8.6413C9.40908 8.34841 8.93421 8.34841 8.64132 8.6413C8.34842 8.93419 8.34842 9.40907 8.64132 9.70196L10.9395 12.0001L8.6413 14.2983C8.34841 14.5912 8.34841 15.0661 8.6413 15.3589C8.93419 15.6518 9.40907 15.6518 9.70196 15.3589L12.0001 13.0608L14.2982 15.3588Z" fill="#28303F"/>
</svg>
